<?xml version="1.0" standalone="no"?>
<!DOCTYPE svg PUBLIC "-//W3C//DTD SVG 20010904//EN"
 "http://www.w3.org/TR/2001/REC-SVG-20010904/DTD/svg10.dtd">
<svg version="1.0" xmlns="http://www.w3.org/2000/svg"
 width="192.000000pt" height="192.000000pt" viewBox="0 0 192.000000 192.000000"
 preserveAspectRatio="xMidYMid meet">
<metadata>
Created by potrace 1.11, written by Peter Selinger 2001-2013
</metadata>
<g transform="translate(0.000000,192.000000) scale(0.100000,-0.100000)"
fill="#000000" stroke="none">
<path d="M237 1825 c-50 -17 -85 -50 -108 -100 -17 -38 -19 -81 -19 -744 0
-700 0 -705 21 -749 15 -29 37 -54 67 -73 l46 -29 718 0 c686 0 721 1 756 19
42 22 63 43 86 88 14 29 16 107 16 742 0 477 -3 719 -11 738 -15 40 -57 82
-104 104 -38 18 -79 19 -735 18 -563 0 -702 -2 -733 -14z m1490 -37 c77 -51
73 -9 73 -811 l0 -714 -22 -33 c-30 -44 -66 -69 -114 -80 -51 -12 -1347 -12
-1398 0 -51 11 -86 38 -113 86 l-23 39 0 702 c0 472 3 711 11 730 14 37 57 82
94 99 24 11 162 13 741 11 l710 -2 41 -27z"/>
<path d="M920 1712 c-35 -35 -58 -109 -70 -227 -5 -49 -10 -93 -10 -97 0 -4
-19 -17 -42 -29 -74 -38 -143 -120 -198 -233 -35 -73 -57 -106 -75 -114 -27
-13 -34 -42 -10 -42 9 0 15 -9 15 -25 l0 -24 -46 24 c-60 32 -104 32 -141 1
-53 -44 -67 -148 -37 -257 26 -93 99 -164 189 -183 24 -5 34 -16 49 -54 28
-67 105 -144 175 -176 75 -34 192 -50 311 -43 191 12 302 71 370 200 25 49 42
69 60 74 112 27 182 118 196 253 16 163 -66 249 -181 190 -48 -24 -45 -24 -45
-1 0 11 9 21 22 24 17 5 19 9 9 20 -6 8 -25 20 -41 27 -17 7 -30 18 -30 24 0
7 -17 48 -39 92 -46 95 -130 191 -198 225 -26 13 -49 24 -50 24 -1 0 -6 43
-12 95 -19 167 -62 260 -121 260 -12 0 -34 -13 -50 -28z m83 -60 c17 -29 17
-31 0 -53 -10 -13 -36 -40 -58 -61 -22 -21 -34 -38 -28 -38 19 0 93 70 93 87
0 8 4 12 9 8 5 -3 12 -31 16 -63 3 -31 8 -74 11 -94 l6 -38 -82 0 -81 0 6 48
c17 130 28 182 46 211 23 38 37 36 62 -7z m91 -318 c67 -23 155 -108 200 -193
20 -38 36 -73 36 -77 0 -5 -39 -9 -88 -10 -70 0 -98 -5 -142 -25 -73 -33 -172
-33 -245 2 -41 19 -67 23 -142 24 -51 0 -93 2 -93 4 0 1 16 34 36 72 50 95
103 152 176 188 52 27 72 31 138 31 44 0 96 -7 124 -16z m-250 -337 c48 -20
48 -21 43 -60 -8 -59 -57 -148 -96 -174 -23 -15 -49 -23 -78 -23 -78 0 -123
65 -148 213 -5 34 -4 38 22 48 85 32 174 31 257 -4z m516 9 c34 -11 35 -12 32
-60 -5 -70 -38 -151 -75 -182 -27 -22 -38 -25 -80 -21 -27 2 -61 13 -75 24
-34 25 -82 117 -89 169 -5 39 -4 41 37 59 77 35 166 39 250 11z m-341 -55 c7
-5 22 -35 33 -66 22 -67 53 -115 93 -147 22 -17 45 -23 98 -26 l68 -4 43 45
43 45 6 -67 c12 -132 -23 -265 -92 -344 -61 -69 -179 -107 -336 -107 -241 0
-374 89 -414 278 -12 57 -13 178 -2 227 7 28 8 29 15 8 4 -12 23 -36 42 -52
30 -27 43 -31 90 -31 102 0 157 46 202 169 13 36 29 69 35 73 16 10 59 10 76
-1z m-533 -66 c32 -24 34 -29 28 -68 -4 -23 -10 -46 -14 -50 -7 -8 -35 17 -65
58 -14 19 -14 19 -15 1 0 -11 18 -36 40 -57 32 -31 40 -45 40 -74 0 -45 -21
-46 -61 -4 -16 18 -33 29 -36 25 -10 -9 48 -66 74 -72 13 -4 23 -12 23 -19 0
-7 3 -27 6 -44 l7 -32 -39 16 c-93 39 -140 128 -132 251 5 80 27 108 76 100
19 -3 49 -17 68 -31z m1100 10 c36 -55 25 -190 -19 -257 -24 -35 -81 -78 -103
-78 -10 0 -14 13 -14 40 0 28 4 40 14 40 21 0 76 49 76 68 0 11 -9 7 -33 -16
-18 -18 -36 -32 -39 -32 -3 0 -9 16 -12 35 -6 32 -3 39 34 73 22 22 40 47 40
57 0 14 -9 8 -35 -21 -29 -33 -36 -37 -45 -24 -6 8 -9 33 -8 55 3 32 9 43 37
62 46 31 86 30 107 -2z"/>
<path d="M1000 1520 c0 -6 -21 -31 -47 -55 -26 -25 -41 -45 -33 -45 7 0 32 20
56 44 43 42 55 66 34 66 -5 0 -10 -5 -10 -10z"/>
<path d="M775 924 c-18 -18 -18 -20 -5 -45 14 -24 36 -24 50 0 20 38 -16 74
-45 45z"/>
<path d="M1262 928 c-26 -26 0 -77 33 -64 20 7 20 62 -1 70 -20 8 -18 8 -32
-6z"/>
<path d="M920 568 c0 -40 6 -84 13 -98 18 -37 62 -55 106 -44 49 12 71 57 71
147 l0 67 -95 0 -95 0 0 -72z m156 -20 c-4 -35 -12 -68 -18 -75 -6 -7 -28 -13
-49 -13 -36 0 -39 3 -48 38 -6 20 -11 54 -11 75 l0 37 66 0 67 0 -7 -62z"/>
</g>
</svg>
