<?xml version="1.0" encoding="UTF-8"?>
<svg width="286px" height="183px" viewBox="0 0 286 183" version="1.1" xmlns="http://www.w3.org/2000/svg" xmlns:xlink="http://www.w3.org/1999/xlink">
    <!-- Generator: Sketch 41 (35326) - http://www.bohemiancoding.com/sketch -->
    <title>Page 1</title>
    <desc>Created with Sketch.</desc>
    <defs>
        <polygon id="path-1" points="0 182.355 285.232 182.355 285.232 0 0 0"></polygon>
    </defs>
    <g id="Future" stroke="none" stroke-width="1" fill="none" fill-rule="evenodd">
        <g id="Splash" transform="translate(-37.000000, -218.000000)">
            <g id="Page-1" transform="translate(37.000000, 218.000000)">
                <path d="M42.7742,48.3931 C42.7742,45.3221 42.3422,42.5011 41.4782,39.9331 C40.6142,37.3661 39.3542,35.1451 37.6982,33.2731 C36.0422,31.4011 34.0132,29.9501 31.6142,28.9171 C29.2132,27.8851 26.4542,27.3701 23.3342,27.3701 L11.0222,27.3701 L11.0222,69.5611 L23.3342,69.5611 C26.5032,69.5611 29.2972,69.0211 31.7222,67.9411 C34.1452,66.8611 36.1732,65.3731 37.8062,63.4771 C39.4372,61.5811 40.6732,59.3491 41.5142,56.7811 C42.3532,54.2141 42.7742,51.4171 42.7742,48.3931 Z M5.9822,74.0251 L5.9822,22.9051 L23.3342,22.9051 C27.4142,22.9051 30.9772,23.5781 34.0262,24.9211 C37.0742,26.2651 39.6182,28.0891 41.6582,30.3931 C43.6982,32.6971 45.2332,35.3971 46.2662,38.4931 C47.2972,41.5891 47.8142,44.8901 47.8142,48.3931 C47.8142,52.2811 47.2382,55.7981 46.0872,58.9411 C44.9342,62.0851 43.2902,64.7731 41.1542,67.0051 C39.0182,69.2371 36.4502,70.9651 33.4502,72.1891 C30.4502,73.4141 27.0782,74.0251 23.3342,74.0251 L5.9822,74.0251 Z" id="Fill-1" fill="#FEFEFE"></path>
                <path d="M86.4773,53.2896 C86.3333,51.2726 85.8663,49.4366 85.0743,47.7806 C84.2823,46.1256 83.2743,44.6976 82.0493,43.4976 C80.8263,42.2986 79.4093,41.3616 77.8013,40.6886 C76.1933,40.0176 74.4773,39.6816 72.6543,39.6816 C70.8293,39.6816 69.1013,40.0176 67.4693,40.6886 C65.8373,41.3616 64.4103,42.2986 63.1853,43.4976 C61.9613,44.6976 60.9773,46.1376 60.2343,47.8166 C59.4893,49.4976 59.0453,51.3216 58.9023,53.2896 L86.4773,53.2896 Z M72.6543,74.7456 C69.9173,74.7456 67.4093,74.2286 65.1293,73.1966 C62.8493,72.1656 60.8693,70.7496 59.1903,68.9486 C57.5083,67.1486 56.2023,65.0736 55.2653,62.7216 C54.3303,60.3696 53.8623,57.8506 53.8623,55.1616 C53.8623,52.5216 54.3303,50.0376 55.2653,47.7096 C56.2023,45.3816 57.4983,43.3426 59.1543,41.5896 C60.8093,39.8376 62.7903,38.4456 65.0933,37.4136 C67.3983,36.3816 69.8933,35.8646 72.5813,35.8646 C75.3183,35.8646 77.8253,36.3816 80.1053,37.4136 C82.3843,38.4456 84.3413,39.8506 85.9733,41.6256 C87.6053,43.4016 88.8773,45.4406 89.7903,47.7456 C90.7013,50.0496 91.1583,52.4976 91.1583,55.0896 L91.1583,56.2406 C91.1583,56.6256 91.1323,56.8896 91.0853,57.0326 L58.9733,57.0326 C59.1183,59.0496 59.5853,60.9096 60.3773,62.6126 C61.1693,64.3176 62.1893,65.7936 63.4373,67.0416 C64.6853,68.2896 66.1133,69.2626 67.7213,69.9576 C69.3293,70.6536 71.0443,71.0016 72.8703,71.0016 C74.0693,71.0016 75.2693,70.8336 76.4693,70.4976 C77.6683,70.1616 78.7743,69.7056 79.7823,69.1296 C80.7903,68.5536 81.7013,67.8456 82.5173,67.0056 C83.3333,66.1656 83.9573,65.2406 84.3893,64.2326 L88.6373,65.3856 C88.0613,66.7776 87.2453,68.0376 86.1903,69.1656 C85.1333,70.2936 83.9093,71.2776 82.5173,72.1166 C81.1243,72.9576 79.5893,73.6056 77.9103,74.0606 C76.2293,74.5176 74.4773,74.7456 72.6543,74.7456 L72.6543,74.7456 Z" id="Fill-3" fill="#FEFEFE"></path>
                <path d="M96.1257,55.1616 C96.1257,52.5216 96.5807,50.0256 97.4927,47.6736 C98.4047,45.3216 99.6887,43.2696 101.3457,41.5166 C103.0017,39.7656 104.9807,38.3856 107.2847,37.3776 C109.5897,36.3696 112.1327,35.8646 114.9177,35.8646 C118.4697,35.8646 121.5647,36.6696 124.2057,38.2766 C126.8447,39.8866 128.8367,42.0576 130.1817,44.7936 L125.4297,46.3056 C124.3727,44.3866 122.8967,42.8856 121.0017,41.8056 C119.1047,40.7246 117.0057,40.1846 114.7007,40.1846 C112.7807,40.1846 110.9927,40.5696 109.3377,41.3376 C107.6817,42.1056 106.2407,43.1496 105.0177,44.4696 C103.7937,45.7896 102.8327,47.3616 102.1377,49.1846 C101.4407,51.0106 101.0937,53.0016 101.0937,55.1616 C101.0937,57.2736 101.4537,59.2656 102.1737,61.1376 C102.8937,63.0096 103.8767,64.6296 105.1257,65.9976 C106.3727,67.3646 107.8247,68.4446 109.4807,69.2366 C111.1377,70.0286 112.9007,70.4256 114.7727,70.4256 C115.9727,70.4256 117.1607,70.2576 118.3377,69.9216 C119.5137,69.5856 120.6047,69.1176 121.6127,68.5166 C122.6217,67.9176 123.4847,67.2336 124.2057,66.4656 C124.9257,65.6976 125.4297,64.8816 125.7177,64.0166 L130.5417,65.4576 C130.0127,66.8016 129.2457,68.0376 128.2367,69.1656 C127.2297,70.2936 126.0417,71.2776 124.6737,72.1166 C123.3057,72.9576 121.7937,73.6056 120.1377,74.0606 C118.4807,74.5166 116.7647,74.7456 114.9887,74.7456 C112.2537,74.7456 109.7327,74.2286 107.4297,73.1966 C105.1257,72.1656 103.1327,70.7496 101.4537,68.9486 C99.7717,67.1486 98.4657,65.0736 97.5287,62.7216 C96.5937,60.3696 96.1257,57.8496 96.1257,55.1616" id="Fill-5" fill="#FEFEFE"></path>
                <mask id="mask-2" fill="white">
                    <use xlink:href="#path-1"></use>
                </mask>
                <g id="Clip-8"></g>
                <path d="M138.245,74.025 L143.141,74.025 L143.141,36.513 L138.245,36.513 L138.245,74.025 Z M138.245,28.665 L143.141,28.665 L143.141,21.465 L138.245,21.465 L138.245,28.665 Z" id="Fill-7" fill="#FEFEFE" mask="url(#mask-2)"></path>
                <path d="M166.3963,74.7456 C163.4673,74.7456 160.6113,74.2656 157.8283,73.3056 C155.0433,72.3456 152.6443,70.9536 150.6273,69.1296 L152.8603,65.8166 C154.9713,67.5456 157.1193,68.8416 159.3043,69.7056 C161.4883,70.5686 163.8283,71.0016 166.3243,71.0016 C169.3483,71.0016 171.7603,70.3896 173.5603,69.1656 C175.3603,67.9406 176.2603,66.2016 176.2603,63.9446 C176.2603,62.8906 176.0193,62.0136 175.5403,61.3166 C175.0593,60.6216 174.3523,60.0106 173.4163,59.4806 C172.4803,58.9536 171.3033,58.4856 169.8883,58.0766 C168.4713,57.6696 166.8283,57.2496 164.9563,56.8166 C162.7953,56.2896 160.9233,55.7626 159.3393,55.2326 C157.7553,54.7056 156.4483,54.1056 155.4163,53.4336 C154.3833,52.7616 153.6163,51.9336 153.1123,50.9486 C152.6083,49.9666 152.3563,48.7296 152.3563,47.2406 C152.3563,45.3696 152.7273,43.7136 153.4723,42.2726 C154.2153,40.8336 155.2233,39.6446 156.4963,38.7096 C157.7673,37.7726 159.2553,37.0656 160.9593,36.5856 C162.6633,36.1056 164.4753,35.8646 166.3963,35.8646 C169.2763,35.8646 171.8913,36.3336 174.2443,37.2686 C176.5953,38.2056 178.4923,39.4416 179.9323,40.9766 L177.5563,43.8566 C176.1633,42.4176 174.4713,41.3376 172.4803,40.6166 C170.4883,39.8966 168.4123,39.5376 166.2513,39.5376 C164.9563,39.5376 163.7553,39.6696 162.6523,39.9326 C161.5473,40.1976 160.5753,40.6166 159.7363,41.1926 C158.8953,41.7686 158.2353,42.5016 157.7553,43.3896 C157.2763,44.2776 157.0363,45.3216 157.0363,46.5206 C157.0363,47.5286 157.2043,48.3466 157.5403,48.9696 C157.8753,49.5936 158.4273,50.1336 159.1963,50.5896 C159.9633,51.0456 160.9353,51.4536 162.1123,51.8126 C163.2883,52.1736 164.7153,52.5456 166.3963,52.9296 C168.7953,53.5056 170.9073,54.0816 172.7323,54.6566 C174.5553,55.2326 176.0803,55.9056 177.3043,56.6736 C178.5283,57.4416 179.4523,58.3776 180.0763,59.4806 C180.6993,60.5856 181.0123,61.9296 181.0123,63.5136 C181.0123,66.9696 179.6913,69.7056 177.0523,71.7216 C174.4123,73.7366 170.8603,74.7456 166.3963,74.7456" id="Fill-9" fill="#FEFEFE" mask="url(#mask-2)"></path>
                <path d="M189.004,74.025 L193.9,74.025 L193.9,36.513 L189.004,36.513 L189.004,74.025 Z M189.004,28.665 L193.9,28.665 L193.9,21.465 L189.004,21.465 L189.004,28.665 Z" id="Fill-10" fill="#FEFEFE" mask="url(#mask-2)"></path>
                <path d="M207.075,55.4487 C207.075,57.5617 207.435,59.5167 208.155,61.3167 C208.875,63.1167 209.846,64.7007 211.071,66.0687 C212.295,67.4367 213.735,68.5067 215.39,69.2727 C217.047,70.0417 218.811,70.4257 220.682,70.4257 C222.554,70.4257 224.319,70.0287 225.974,69.2367 C227.631,68.4447 229.082,67.3647 230.331,65.9977 C231.579,64.6297 232.563,63.0337 233.283,61.2097 C234.003,59.3857 234.363,57.4177 234.363,55.3047 C234.363,53.2417 234.003,51.2857 233.283,49.4367 C232.563,47.5907 231.579,45.9807 230.331,44.6127 C229.082,43.2457 227.631,42.1657 225.974,41.3737 C224.319,40.5817 222.554,40.1847 220.682,40.1847 C218.811,40.1847 217.058,40.5817 215.427,41.3737 C213.795,42.1657 212.354,43.2577 211.107,44.6487 C209.858,46.0417 208.875,47.6617 208.155,49.5097 C207.435,51.3577 207.075,53.3377 207.075,55.4487 M220.682,74.7457 C217.947,74.7457 215.451,74.2287 213.195,73.1967 C210.938,72.1657 208.983,70.7617 207.327,68.9847 C205.671,67.2097 204.387,65.1457 203.474,62.7937 C202.562,60.4417 202.107,57.9697 202.107,55.3777 C202.107,52.7377 202.575,50.2417 203.511,47.8887 C204.447,45.5377 205.743,43.4727 207.399,41.6967 C209.054,39.9227 211.011,38.5057 213.266,37.4487 C215.522,36.3937 217.994,35.8647 220.682,35.8647 C223.371,35.8647 225.854,36.3937 228.135,37.4487 C230.414,38.5057 232.383,39.9227 234.039,41.6967 C235.695,43.4727 236.991,45.5377 237.927,47.8887 C238.863,50.2417 239.331,52.7377 239.331,55.3777 C239.331,57.9697 238.874,60.4417 237.963,62.7937 C237.051,65.1457 235.766,67.2097 234.111,68.9847 C232.455,70.7617 230.486,72.1657 228.207,73.1967 C225.927,74.2287 223.419,74.7457 220.682,74.7457" id="Fill-11" fill="#FEFEFE" mask="url(#mask-2)"></path>
                <path d="M279.074,74.0249 L274.178,74.0249 L274.178,53.0729 C274.178,48.6089 273.517,45.3699 272.198,43.3529 C270.878,41.3369 268.85,40.3299 266.114,40.3299 C264.675,40.3299 263.234,40.5929 261.794,41.1219 C260.354,41.6499 259.022,42.3929 257.799,43.3529 C256.574,44.3139 255.482,45.4539 254.522,46.7729 C253.561,48.0939 252.866,49.5219 252.434,51.0569 L252.434,74.0249 L247.538,74.0249 L247.538,36.5129 L252.002,36.5129 L252.002,45.0089 C253.538,42.2729 255.734,40.0659 258.591,38.3849 C261.445,36.7059 264.553,35.8649 267.914,35.8649 C269.977,35.8649 271.73,36.2499 273.171,37.0169 C274.61,37.7859 275.762,38.8659 276.626,40.2569 C277.49,41.6499 278.113,43.3529 278.498,45.3699 C278.882,47.3849 279.074,49.6169 279.074,52.0649 L279.074,74.0249 Z" id="Fill-12" fill="#FEFEFE" mask="url(#mask-2)"></path>
                <polygon id="Fill-13" fill="#FEFEFE" mask="url(#mask-2)" points="155.3797 160.4253 155.3797 109.3053 188.9317 109.3053 188.9317 113.7693 160.4197 113.7693 160.4197 132.5613 184.4677 132.5613 184.4677 136.7373 160.4197 136.7373 160.4197 160.4253"></polygon>
                <path d="M196.779,160.426 L201.675,160.426 L201.675,122.913 L196.779,122.913 L196.779,160.426 Z M196.779,115.065 L201.675,115.065 L201.675,107.865 L196.779,107.865 L196.779,115.065 Z" id="Fill-14" fill="#FEFEFE" mask="url(#mask-2)"></path>
                <path d="M224.9304,161.145 C222.0014,161.145 219.1454,160.665 216.3624,159.705 C213.5774,158.746 211.1784,157.354 209.1614,155.529 L211.3944,152.217 C213.5054,153.945 215.6534,155.241 217.8384,156.105 C220.0224,156.969 222.3624,157.401 224.8584,157.401 C227.8824,157.401 230.2944,156.789 232.0944,155.565 C233.8944,154.341 234.7944,152.602 234.7944,150.345 C234.7944,149.29 234.5534,148.414 234.0744,147.717 C233.5934,147.022 232.8864,146.41 231.9504,145.881 C231.0144,145.353 229.8374,144.885 228.4224,144.477 C227.0054,144.07 225.3624,143.649 223.4904,143.217 C221.3294,142.689 219.4574,142.162 217.8734,141.633 C216.2894,141.105 214.9824,140.505 213.9504,139.833 C212.9174,139.162 212.1504,138.333 211.6464,137.349 C211.1424,136.366 210.8904,135.129 210.8904,133.641 C210.8904,131.769 211.2614,130.113 212.0064,128.673 C212.7494,127.233 213.7574,126.045 215.0304,125.109 C216.3014,124.173 217.7894,123.465 219.4934,122.985 C221.1974,122.505 223.0094,122.265 224.9304,122.265 C227.8104,122.265 230.4254,122.733 232.7784,123.669 C235.1294,124.605 237.0264,125.841 238.4664,127.377 L236.0904,130.257 C234.6974,128.817 233.0054,127.737 231.0144,127.017 C229.0224,126.297 226.9464,125.937 224.7854,125.937 C223.4904,125.937 222.2894,126.07 221.1864,126.333 C220.0814,126.597 219.1094,127.017 218.2704,127.593 C217.4294,128.169 216.7694,128.902 216.2894,129.789 C215.8104,130.678 215.5704,131.722 215.5704,132.921 C215.5704,133.929 215.7384,134.746 216.0744,135.369 C216.4094,135.994 216.9614,136.534 217.7304,136.989 C218.4974,137.446 219.4694,137.853 220.6464,138.213 C221.8224,138.573 223.2494,138.946 224.9304,139.329 C227.3294,139.905 229.4414,140.481 231.2664,141.057 C233.0894,141.633 234.6144,142.306 235.8384,143.073 C237.0624,143.841 237.9864,144.778 238.6104,145.881 C239.2334,146.986 239.5464,148.329 239.5464,149.913 C239.5464,153.369 238.2254,156.105 235.5864,158.121 C232.9464,160.137 229.3944,161.145 224.9304,161.145" id="Fill-15" fill="#FEFEFE" mask="url(#mask-2)"></path>
                <path d="M279.074,160.4253 L274.178,160.4253 L274.178,139.4733 C274.178,135.2013 273.445,132.0103 271.982,129.8973 C270.517,127.7853 268.369,126.7293 265.538,126.7293 C264.145,126.7293 262.765,127.0053 261.397,127.5573 C260.03,128.1103 258.745,128.8653 257.546,129.8243 C256.345,130.7853 255.302,131.9123 254.414,133.2093 C253.525,134.5053 252.866,135.9213 252.433,137.4573 L252.433,160.4253 L247.538,160.4253 L247.538,107.8643 L252.433,107.8643 L252.433,131.4083 C253.921,128.5773 255.985,126.3453 258.626,124.7133 C261.265,123.0813 264.121,122.2653 267.194,122.2653 C269.353,122.2653 271.178,122.6603 272.666,123.4523 C274.153,124.2443 275.377,125.3503 276.338,126.7653 C277.298,128.1813 277.994,129.8863 278.426,131.8773 C278.858,133.8693 279.074,136.0653 279.074,138.4653 L279.074,160.4253 Z" id="Fill-16" fill="#FEFEFE" mask="url(#mask-2)"></path>
                <polyline id="Fill-17" fill="#FEFEFE" mask="url(#mask-2)" points="8.4454 17.0685 16.8904 17.0685 8.4454 0.0005"></polyline>
                <polyline id="Fill-18" fill="#FEFEFE" mask="url(#mask-2)" points="8.4454 17.0685 0.0004 17.0685 8.4454 0.0005"></polyline>
                <polygon id="Fill-19" fill="#FEFEFE" mask="url(#mask-2)" points="5.964 25.274 10.928 25.274 10.928 16.486 5.964 16.486"></polygon>
                <polyline id="Fill-20" fill="#FEFEFE" mask="url(#mask-2)" points="276.787 160 268.342 160 276.787 177.068"></polyline>
                <polyline id="Fill-21" fill="#FEFEFE" mask="url(#mask-2)" points="276.787 160 285.232 160 276.787 177.068"></polyline>
                <path d="M71.2537,109.0269 C65.0617,110.4609 54.1177,116.3819 49.6817,139.8539 L48.3097,148.7599 C47.7337,154.2949 47.6677,164.7669 53.8017,171.9109 C57.7237,176.4779 63.6637,178.9839 71.4567,179.3569 L81.5107,179.3549 C89.2327,178.9839 95.1727,176.4779 99.0947,171.9109 C105.2287,164.7669 105.1617,154.2949 104.5767,148.6869 L103.2057,139.8039 C98.7777,116.3809 87.8347,110.4609 81.6427,109.0269 L78.2437,108.6879 L74.6517,108.6879 L71.2537,109.0269 Z M77.8807,182.3549 L71.3857,182.3549 C62.6637,181.9389 56.0057,179.0839 51.5247,173.8649 C44.6597,165.8689 44.6997,154.4639 45.3347,148.3769 L46.7257,139.3469 C51.5097,114.0299 63.7867,107.6399 70.6807,106.0809 L70.8627,106.0509 L74.5777,105.6879 L78.4667,105.6959 L82.2157,106.0809 C89.1087,107.6399 101.3867,114.0299 106.1617,139.2979 L107.5517,148.3029 C108.1957,154.4639 108.2357,165.8689 101.3707,173.8649 C96.8907,179.0839 90.2327,181.9389 81.5817,182.3529 L77.8807,182.3549 Z" id="Fill-22" fill="#FEFEFE" mask="url(#mask-2)"></path>
                <path d="M47.698,164.7954 C42.45,164.4994 38.355,162.6004 35.527,159.1514 C30.063,152.4894 31.404,142.5054 31.464,142.0834 C32.183,137.8024 33.888,135.2134 36.539,134.3504 C41.823,132.6314 48.368,138.8304 49.096,139.5444 L47,141.6904 C45.485,140.2124 40.472,136.2124 37.467,137.2034 C35.964,137.6934 34.941,139.4904 34.428,142.5424 C34.422,142.5924 33.226,151.6294 37.856,157.2604 C40.13,160.0254 43.498,161.5534 47.866,161.7994 L47.698,164.7954 Z" id="Fill-23" fill="#FEFEFE" mask="url(#mask-2)"></path>
                <path d="M46.5125,149.0327 C45.8585,149.0327 41.7225,148.8187 39.6925,143.5997 C39.5915,143.3427 39.7195,143.0527 39.9765,142.9527 C40.2345,142.8527 40.5235,142.9797 40.6235,143.2367 C42.5465,148.1787 46.3855,148.0387 46.5415,148.0327 C46.8115,148.0107 47.0535,148.2287 47.0685,148.5037 C47.0835,148.7787 46.8745,149.0137 46.6005,149.0307 C46.5965,149.0307 46.5665,149.0327 46.5125,149.0327" id="Fill-24" fill="#FEFEFE" mask="url(#mask-2)"></path>
                <path d="M45.5798,155.7925 C44.1628,155.7925 40.9678,155.3025 38.7518,151.2515 C38.6188,151.0095 38.7078,150.7055 38.9498,150.5725 C39.1898,150.4405 39.4958,150.5275 39.6288,150.7715 C42.1918,155.4555 46.0778,154.7685 46.1148,154.7605 C46.3808,154.7105 46.6488,154.8845 46.7008,155.1565 C46.7528,155.4285 46.5758,155.6895 46.3048,155.7425 C46.2938,155.7445 46.0238,155.7925 45.5798,155.7925" id="Fill-25" fill="#FEFEFE" mask="url(#mask-2)"></path>
                <path d="M104.739,164.7954 L104.571,161.7994 C108.939,161.5534 112.307,160.0254 114.582,157.2604 C119.211,151.6294 118.016,142.5924 118.004,142.5024 C117.497,139.4904 116.474,137.6934 114.971,137.2034 C111.954,136.2114 106.952,140.2124 105.437,141.6904 L103.341,139.5444 C104.069,138.8304 110.611,132.6304 115.899,134.3504 C118.55,135.2134 120.255,137.8024 120.968,142.0444 C121.034,142.5054 122.374,152.4894 116.91,159.1514 C114.082,162.6004 109.987,164.4994 104.739,164.7954" id="Fill-26" fill="#FEFEFE" mask="url(#mask-2)"></path>
                <path d="M105.9246,149.0327 C105.8706,149.0327 105.8406,149.0307 105.8366,149.0307 C105.5616,149.0137 105.3516,148.7767 105.3676,148.5017 C105.3836,148.2257 105.5886,147.9947 105.8956,148.0327 C106.0556,148.0317 109.8906,148.1787 111.8136,143.2367 C111.9136,142.9797 112.2036,142.8517 112.4606,142.9527 C112.7176,143.0527 112.8456,143.3427 112.7446,143.5997 C110.7146,148.8187 106.5796,149.0327 105.9246,149.0327" id="Fill-27" fill="#FEFEFE" mask="url(#mask-2)"></path>
                <path d="M106.8572,155.7925 C106.4132,155.7925 106.1432,155.7445 106.1322,155.7425 C105.8612,155.6895 105.6842,155.4285 105.7362,155.1565 C105.7882,154.8855 106.0542,154.7075 106.3202,154.7605 C106.4872,154.7895 110.2622,155.4255 112.8082,150.7715 C112.9412,150.5275 113.2472,150.4405 113.4872,150.5725 C113.7292,150.7055 113.8182,151.0095 113.6852,151.2515 C111.4692,155.3015 108.2742,155.7925 106.8572,155.7925" id="Fill-28" fill="#FEFEFE" mask="url(#mask-2)"></path>
                <path d="M78.5095,167.9605 L79.2275,167.9605 L81.0175,167.6435 C82.8155,167.3695 83.3215,161.9235 83.0465,157.6275 L74.6905,157.6275 C74.4215,161.8025 74.8465,167.3575 76.6955,167.6395 L78.5095,167.9605 Z M79.4035,169.9605 L78.2465,169.9445 L76.3695,169.6115 C71.8415,168.9255 72.5755,158.5975 72.7695,156.5335 L72.8555,155.6275 L84.8815,155.6275 L84.9675,156.5335 C85.1605,158.5975 85.8955,168.9255 81.3425,169.6155 L79.4035,169.9605 Z" id="Fill-29" fill="#FEFEFE" mask="url(#mask-2)"></path>
                <path d="M70.6394,107.9966 L67.6414,107.8986 C68.2414,89.5126 71.5714,84.6526 74.2584,83.8136 C74.5464,83.7386 75.2684,83.5666 75.8094,83.5666 C76.2954,83.5666 77.2244,83.7206 77.4974,83.7676 L77.6894,83.8136 C80.3774,84.6516 83.7084,89.5116 84.3074,107.8986 L81.3094,107.9966 C80.7024,89.3846 77.2804,86.9356 76.8414,86.6996 C76.4034,86.6276 75.9444,86.5676 75.8084,86.5666 C75.6854,86.5686 75.3044,86.6416 75.0734,86.6996 L75.0744,86.6996 C75.0914,86.6996 71.2834,88.2666 70.6394,107.9966" id="Fill-30" fill="#FEFEFE" mask="url(#mask-2)"></path>
                <path d="M72.406,99.2935 C72.231,99.2935 72.062,99.2025 71.97,99.0405 C71.834,98.8005 71.918,98.4955 72.158,98.3585 C72.211,98.3285 77.46,95.3065 78.037,91.9585 C78.084,91.6865 78.345,91.5015 78.615,91.5505 C78.887,91.5975 79.07,91.8565 79.023,92.1285 C78.365,95.9425 72.885,99.0965 72.652,99.2285 C72.574,99.2725 72.489,99.2935 72.406,99.2935" id="Fill-31" fill="#FEFEFE" mask="url(#mask-2)"></path>
                <path d="M72.406,104.5435 C72.231,104.5435 72.062,104.4525 71.97,104.2905 C71.834,104.0505 71.918,103.7455 72.158,103.6085 C72.211,103.5785 77.46,100.5565 78.037,97.2085 C78.084,96.9365 78.345,96.7555 78.615,96.8005 C78.887,96.8475 79.07,97.1065 79.023,97.3785 C78.365,101.1925 72.885,104.3465 72.652,104.4785 C72.574,104.5225 72.489,104.5435 72.406,104.5435" id="Fill-32" fill="#FEFEFE" mask="url(#mask-2)"></path>
                <path d="M72.1365,135.0435 L72.1465,135.0435 L72.1365,135.0435 Z M56.8075,149.1165 L59.3445,149.1685 C68.1755,149.7605 70.9185,136.1175 71.1365,134.9535 L71.1365,133.7275 C60.7205,127.4455 51.5815,131.1735 48.6635,132.6935 C48.8905,132.8715 49.0345,133.1425 49.0465,133.4425 C49.0525,133.5845 49.6795,147.6125 56.8075,149.1165 L56.8075,149.1165 Z M59.9825,151.1905 C59.7445,151.1905 59.5025,151.1835 59.2565,151.1665 L56.6765,151.1145 C56.6185,151.1135 56.5615,151.1065 56.5045,151.0965 C48.7375,149.5715 47.3275,137.4195 47.0925,134.2515 L45.5535,133.8185 C45.1305,133.6995 44.8345,133.3185 44.8245,132.8795 C44.8145,132.4405 45.0905,132.0465 45.5075,131.9075 L46.7045,131.5085 C48.0375,130.6835 59.5425,124.0585 72.6695,132.3215 C72.9595,132.5055 73.1365,132.8245 73.1365,133.1685 L73.1365,135.0435 C73.1365,135.0995 73.1315,135.1555 73.1225,135.2115 C73.0085,135.8775 70.2845,151.1905 59.9825,151.1905 L59.9825,151.1905 Z" id="Fill-33" fill="#FEFEFE" mask="url(#mask-2)"></path>
                <path d="M82.1638,134.9527 C82.3838,136.1157 85.1018,149.7567 93.9088,149.1707 L96.4918,149.1167 C103.6308,147.6107 104.2468,133.5847 104.2528,133.4427 C104.2638,133.1417 104.4088,132.8707 104.6368,132.6927 C103.4628,132.0777 101.2878,131.1047 98.4538,130.5717 C92.8518,129.5237 87.3748,130.5807 82.1638,133.7267 L82.1638,134.9527 Z M93.2748,151.1927 C83.0148,151.1927 80.2918,135.8777 80.1778,135.2117 C80.1688,135.1557 80.1638,135.0987 80.1638,135.0437 L80.1638,133.1687 C80.1638,132.8247 80.3408,132.5057 80.6308,132.3217 C93.7558,124.0567 105.2638,130.6817 106.5958,131.5087 L107.7928,131.9077 C108.2098,132.0467 108.4858,132.4407 108.4758,132.8807 C108.4658,133.3187 108.1698,133.6997 107.7468,133.8187 L106.2068,134.2517 C105.9718,137.4197 104.5618,149.5717 96.7958,151.0967 C96.7388,151.1067 96.6818,151.1137 96.6238,151.1147 L93.9968,151.1687 C93.7528,151.1847 93.5118,151.1927 93.2748,151.1927 L93.2748,151.1927 Z" id="Fill-34" fill="#FEFEFE" mask="url(#mask-2)"></path>
                <path d="M80.6697,135.563 C80.3967,135.563 80.1197,135.489 79.8717,135.333 C79.8697,135.332 78.7577,134.674 77.5187,134.709 L75.9867,134.709 L75.8987,134.709 C74.6347,134.709 73.5987,135.332 73.5877,135.337 C72.8847,135.767 71.9607,135.55 71.5267,134.85 C71.0927,134.15 71.3007,133.233 71.9987,132.793 C72.1827,132.677 73.8697,131.658 76.0227,131.709 L77.4817,131.709 C79.5557,131.67 81.2857,132.677 81.4697,132.793 C82.1707,133.235 82.3817,134.161 81.9407,134.862 C81.6547,135.315 81.1677,135.563 80.6697,135.563" id="Fill-35" fill="#FEFEFE" mask="url(#mask-2)"></path>
                <path d="M63.0583,139.2346 L63.0583,138.1736 C63.0583,137.4266 63.6693,136.8146 64.4173,136.8146 C65.1653,136.8146 65.7763,137.4266 65.7763,138.1736 L65.7763,139.2346 C65.7763,139.9816 65.1653,140.5936 64.4173,140.5936 C63.6693,140.5936 63.0583,139.9816 63.0583,139.2346 Z" id="Fill-36" fill-opacity="0.7" fill="#FEFEFE" mask="url(#mask-2)"></path>
                <path d="M64.4177,137.315 C63.9437,137.315 63.5587,137.701 63.5587,138.174 L63.5587,139.234 C63.5587,139.708 63.9437,140.093 64.4177,140.093 C64.8917,140.093 65.2767,139.708 65.2767,139.234 L65.2767,138.174 C65.2767,137.701 64.8917,137.315 64.4177,137.315 M64.4177,141.093 C63.3927,141.093 62.5587,140.259 62.5587,139.234 L62.5587,138.174 C62.5587,137.149 63.3927,136.315 64.4177,136.315 C65.4427,136.315 66.2767,137.149 66.2767,138.174 L66.2767,139.234 C66.2767,140.259 65.4427,141.093 64.4177,141.093" id="Fill-37" fill="#FEFEFE" mask="url(#mask-2)"></path>
                <path d="M96.6257,140.5936 L96.6257,140.5936 C95.8777,140.5936 95.2667,139.9816 95.2667,139.2346 L95.2667,138.1736 C95.2667,137.4266 95.8777,136.8146 96.6257,136.8146 L96.6257,136.8146 C97.3737,136.8146 97.9847,137.4266 97.9847,138.1736 L97.9847,139.2346 C97.9847,139.9816 97.3737,140.5936 96.6257,140.5936" id="Fill-38" fill-opacity="0.7" fill="#FEFEFE" mask="url(#mask-2)"></path>
                <path d="M96.6257,137.315 C96.1517,137.315 95.7667,137.701 95.7667,138.174 L95.7667,139.234 C95.7667,139.708 96.1517,140.093 96.6257,140.093 C97.0997,140.093 97.4847,139.708 97.4847,139.234 L97.4847,138.174 C97.4847,137.701 97.0997,137.315 96.6257,137.315 M96.6257,141.093 C95.6007,141.093 94.7667,140.259 94.7667,139.234 L94.7667,138.174 C94.7667,137.149 95.6007,136.315 96.6257,136.315 C97.6507,136.315 98.4847,137.149 98.4847,138.174 L98.4847,139.234 C98.4847,140.259 97.6507,141.093 96.6257,141.093" id="Fill-39" fill="#FEFEFE" mask="url(#mask-2)"></path>
            </g>
        </g>
    </g>
</svg>