<?xml version="1.0" encoding="UTF-8"?>
<svg width="38px" height="48px" viewBox="0 0 38 48" version="1.1" xmlns="http://www.w3.org/2000/svg" xmlns:xlink="http://www.w3.org/1999/xlink">
    <!-- Generator: Sketch 41 (35326) - http://www.bohemiancoding.com/sketch -->
    <title>flag</title>
    <desc>Created with Sketch.</desc>
    <defs>
        <polygon id="path-1" points="19 14.4 0.791666667 14.4 0.791666667 1.6 19 1.6 15.0416667 8"></polygon>
    </defs>
    <g id="Future" stroke="none" stroke-width="1" fill="none" fill-rule="evenodd">
        <g id="Projected-Net-Worth-Retirement" transform="translate(-318.000000, -459.000000)">
            <g id="flag" transform="translate(318.000000, 459.000000)">
                <g id="Capa_1">
                    <g>
                        <path d="M0.395833333,0 C0.177333333,0 0,0.1788 0,0.4 L0,1.6 L0,23.6 C0,23.8212 0.177333333,24 0.395833333,24 C0.614333333,24 0.791666667,23.8212 0.791666667,23.6 L0.791666667,1.6 L0.791666667,0.4 C0.791666667,0.1788 0.614333333,0 0.395833333,0 Z" id="Shape" fill="#424A60"></path>
                        <mask id="mask-2" fill="white">
                            <use xlink:href="#path-1"></use>
                        </mask>
                        <use id="Shape" fill="#FFFFFF" xlink:href="#path-1"></use>
                        <rect id="Rectangle" fill="#464654" mask="url(#mask-2)" x="0" y="1" width="4" height="4"></rect>
                        <rect id="Rectangle-Copy-4" fill="#464654" mask="url(#mask-2)" x="8" y="1" width="4" height="4"></rect>
                        <rect id="Rectangle-Copy-8" fill="#464654" mask="url(#mask-2)" x="16" y="1" width="4" height="4"></rect>
                        <rect id="Rectangle-Copy-2" fill="#464654" mask="url(#mask-2)" x="4" y="5" width="4" height="4"></rect>
                        <rect id="Rectangle-Copy-5" fill="#464654" mask="url(#mask-2)" x="12" y="5" width="4" height="4"></rect>
                        <rect id="Rectangle-Copy" fill="#464654" mask="url(#mask-2)" x="0" y="9" width="4" height="4"></rect>
                        <rect id="Rectangle-Copy-6" fill="#464654" mask="url(#mask-2)" x="8" y="9" width="4" height="4"></rect>
                        <rect id="Rectangle-Copy-9" fill="#464654" mask="url(#mask-2)" x="16" y="9" width="4" height="4"></rect>
                        <rect id="Rectangle-Copy-3" fill="#464654" mask="url(#mask-2)" x="4" y="13" width="4" height="4"></rect>
                        <rect id="Rectangle-Copy-7" fill="#464654" mask="url(#mask-2)" x="12" y="13" width="4" height="4"></rect>
                    </g>
                </g>
            </g>
        </g>
    </g>
</svg>