<?xml version="1.0" encoding="UTF-8"?>
<svg width="30px" height="23px" viewBox="0 0 30 23" version="1.1" xmlns="http://www.w3.org/2000/svg" xmlns:xlink="http://www.w3.org/1999/xlink">
    <title>animal</title>
    <defs></defs>
    <g id="Budget" stroke="none" stroke-width="1" fill="none" fill-rule="evenodd">
        <g id="Needs" transform="translate(-112.000000, -241.000000)" fill="#FFFFFF">
            <g id="animal" transform="translate(112.000000, 241.000000)">
                <g id="Capa_1">
                    <path d="M8.64076566,12.4142981 C7.64610209,12.4142981 6.83686775,13.2099768 6.83686775,14.1880626 C6.83686775,15.1661485 7.64610209,15.9618271 8.64076566,15.9618271 C9.63542923,15.9618271 10.444594,15.1661485 10.444594,14.1880626 C10.444594,13.2099768 9.63542923,12.4142981 8.64076566,12.4142981 Z M8.64076566,14.729877 C8.33693735,14.729877 8.08976798,14.4868271 8.08976798,14.1881311 C8.08976798,13.889435 8.33693735,13.6463852 8.64076566,13.6463852 C8.94452436,13.6463852 9.19169374,13.889435 9.19169374,14.1881311 C9.19169374,14.4868271 8.94452436,14.729877 8.64076566,14.729877 Z M7.44967517,9.55040255 C7.44967517,8.57231671 6.64051044,7.77656961 5.64584687,7.77656961 C4.65118329,7.77656961 3.84201856,8.57231671 3.84201856,9.55040255 C3.84201856,10.52842 4.65118329,11.3240986 5.64584687,11.3240986 C6.64051044,11.3240986 7.44967517,10.52842 7.44967517,9.55040255 Z M5.64584687,10.09208 C5.34208817,10.09208 5.09491879,9.84909861 5.09491879,9.55040255 C5.09491879,9.25163805 5.34208817,9.00858817 5.64584687,9.00858817 C5.94960557,9.00858817 6.19677494,9.25163805 6.19677494,9.55040255 C6.19677494,9.84909861 5.94967517,10.09208 5.64584687,10.09208 Z M26.8032251,0.267964037 L26.6151508,0.0307320186 L3.34858469,0.0307320186 L3.16044084,0.267964037 C1.09287703,2.87566821 0,6.00526914 0,9.31844084 C0,12.1171763 0.801716937,14.8402111 2.31835267,17.1932981 C3.79392111,19.482594 5.87742459,21.327268 8.34354988,22.5278016 L8.47489559,22.5917981 L21.4886311,22.5917981 L21.6199768,22.5278016 C24.0861021,21.327268 26.1696056,19.482594 27.645174,17.1932981 C29.1618794,14.8402111 29.9635963,12.1171763 29.9635963,9.31844084 C29.9636659,6.00526914 28.8707889,2.87566821 26.8032251,0.267964037 Z M3.96459397,1.26275058 L25.9991415,1.26275058 C26.612297,2.07129698 27.1254988,2.93234107 27.5345012,3.83376798 C24.0034803,4.66640719 19.5124594,5.12314385 14.8250116,5.12314385 C13.3281439,5.12314385 11.8386543,5.07639559 10.3894664,4.98413109 C10.1912993,4.21617285 9.4825058,3.64650116 8.64083527,3.64650116 C7.9162413,3.64650116 7.29013921,4.06867285 7.00350348,4.67612645 C5.33951276,4.47674478 3.79600928,4.21630974 2.39965197,3.89940719 C2.81331787,2.97409281 3.33654292,2.09087239 3.96459397,1.26275058 Z M9.19169374,5.42033411 C9.19169374,5.71903016 8.94452436,5.9620116 8.64076566,5.9620116 C8.33693735,5.9620116 8.08976798,5.71903016 8.08976798,5.42033411 C8.08976798,5.12156961 8.33693735,4.87851972 8.64076566,4.87851972 C8.94452436,4.87851972 9.19169374,5.12156961 9.19169374,5.42033411 Z M11.1125986,20.8310383 C11.0410441,21.0602622 10.5516473,21.3597796 9.84187935,21.3597796 C9.072529,21.3597796 8.56204176,21.0078329 8.56204176,20.7750499 C8.56204176,20.5423353 9.0724594,20.1903886 9.84187935,20.1903886 C10.5516473,20.1903886 11.0410441,20.489906 11.1125986,20.7190615 C11.1118329,20.7376787 11.1114849,20.7562958 11.1114849,20.7750499 C11.1114849,20.7938039 11.1119026,20.8124211 11.1125986,20.8310383 Z M10.6110905,18.5158016 C10.6110905,18.2830186 11.1215081,17.9310719 11.8907889,17.9310719 C12.6601392,17.9310719 13.1706265,18.2830186 13.1706265,18.5158016 C13.1706265,18.7485162 12.6602088,19.1004629 11.8907889,19.1004629 C11.1215081,19.1004629 10.6110905,18.7485162 10.6110905,18.5158016 Z M13.6441531,21.3597796 C12.9343852,21.3597796 12.4449884,21.0602622 12.3735035,20.8310383 C12.3742691,20.8124211 12.3746172,20.7938039 12.3746172,20.7750499 C12.3746172,20.7562958 12.3742691,20.7376787 12.3735035,20.7190615 C12.445058,20.489906 12.9344548,20.1903886 13.6441531,20.1903886 C14.4135035,20.1903886 14.9239211,20.5423353 14.9239211,20.7750499 C14.9239211,21.0078329 14.4135035,21.3597796 13.6441531,21.3597796 Z M22.7675638,20.4424733 C22.820116,19.5050441 22.3374014,18.6534455 21.9167053,17.9112227 C21.5453596,17.2560626 21.1946172,16.6372471 21.2136195,16.0408817 C21.2266357,15.6333573 21.4186775,15.2323353 21.8006032,14.8153654 C23.4812993,13.091703 22.5869374,11.5138295 21.9338283,10.3611392 L20.8393503,10.9608585 C21.5407657,12.1986949 21.8890719,12.9487204 20.8907889,13.9682842 L20.8776334,13.9821787 C20.2839675,14.6273457 19.9842459,15.2880499 19.9613457,16.00221 C19.9314849,16.939297 20.3843387,17.7383295 20.8223666,18.5110104 C21.5094432,19.7232483 21.847587,20.4339861 21.0633411,21.3597796 L20.2008585,21.3597796 C20.8125522,20.0048329 20.1414849,18.78842 19.580464,17.7711833 C18.8537819,16.4536079 18.4911369,15.6564919 19.4866357,14.5972297 L18.5664501,13.7610313 C16.9135267,15.5199432 17.7815777,17.0938469 18.4790951,18.3585139 C19.1642227,19.6007309 19.527355,20.3831311 18.73942,21.3597796 L16.0476334,21.3597796 C16.1315081,21.1770302 16.1767517,20.9805232 16.1767517,20.7750499 C16.1767517,19.9267367 15.4054524,19.231536 14.3273318,19.0226404 C14.3899768,18.8623411 14.4234571,18.692391 14.4234571,18.5158016 C14.4234571,17.4970592 13.3109513,16.6990534 11.8907193,16.6990534 C10.4705568,16.6990534 9.35812065,17.4970592 9.35812065,18.5158016 C9.35812065,18.6769223 9.38596288,18.8325673 9.43844548,18.9802726 C8.32614849,19.1029269 7.47452436,19.7271497 7.33058005,20.5320684 C3.54194896,18.043391 1.25290023,13.888819 1.25290023,9.31844084 C1.25290023,7.84782135 1.48781903,6.41662645 1.94540603,5.0603109 C3.445058,5.40835615 5.10890951,5.69192575 6.90549884,5.90547564 C7.12064965,6.64838283 7.81719258,7.19403016 8.64083527,7.19403016 C9.34705336,7.19403016 9.95979118,6.79287123 10.2557541,6.2101949 C11.7484455,6.30642923 13.2831787,6.35516241 14.8253596,6.35516241 C19.6815313,6.35516241 24.3442691,5.87166357 27.994942,4.99166009 C28.4678422,6.36830394 28.7107657,7.82297564 28.7107657,9.31844084 C28.7107657,13.834268 26.4755916,17.9442819 22.7675638,20.4424733 Z" id="XMLID_167_"></path>
                </g>
            </g>
        </g>
    </g>
</svg>