<?xml version="1.0" encoding="UTF-8"?>
<svg width="43px" height="45px" viewBox="0 0 43 45" version="1.1" xmlns="http://www.w3.org/2000/svg" xmlns:xlink="http://www.w3.org/1999/xlink">
    <title>contract</title>
    <defs>
        <filter x="-50%" y="-50%" width="200%" height="200%" filterUnits="objectBoundingBox" id="filter-1">
            <feOffset dx="0" dy="2" in="SourceAlpha" result="shadowOffsetOuter1"></feOffset>
            <feGaussianBlur stdDeviation="2" in="shadowOffsetOuter1" result="shadowBlurOuter1"></feGaussianBlur>
            <feColorMatrix values="0 0 0 0 0   0 0 0 0 0   0 0 0 0 0  0 0 0 0.5 0" type="matrix" in="shadowBlurOuter1" result="shadowMatrixOuter1"></feColorMatrix>
            <feMerge>
                <feMergeNode in="shadowMatrixOuter1"></feMergeNode>
                <feMergeNode in="SourceGraphic"></feMergeNode>
            </feMerge>
        </filter>
        <filter x="-50%" y="-50%" width="200%" height="200%" filterUnits="objectBoundingBox" id="filter-2">
            <feOffset dx="0" dy="2" in="SourceAlpha" result="shadowOffsetOuter1"></feOffset>
            <feGaussianBlur stdDeviation="2" in="shadowOffsetOuter1" result="shadowBlurOuter1"></feGaussianBlur>
            <feColorMatrix values="0 0 0 0 0   0 0 0 0 0   0 0 0 0 0  0 0 0 0.5 0" type="matrix" in="shadowBlurOuter1" result="shadowMatrixOuter1"></feColorMatrix>
            <feMerge>
                <feMergeNode in="shadowMatrixOuter1"></feMergeNode>
                <feMergeNode in="SourceGraphic"></feMergeNode>
            </feMerge>
        </filter>
    </defs>
    <g id="Future" stroke="none" stroke-width="1" fill="none" fill-rule="evenodd">
        <g id="Lets-begin" transform="translate(-159.000000, -102.000000)" fill="#FFFFFF">
            <g id="Group-2" filter="url(#filter-1)" transform="translate(25.000000, 75.000000)">
                <g id="budget" filter="url(#filter-2)" transform="translate(110.000000, 0.000000)">
                    <g id="contract" transform="translate(31.000000, 30.000000)">
                        <g id="Layer_1">
                            <path d="M21.4902755,0 L0.689555921,0 C0.342125822,0 0.0605057566,0.281620066 0.0605057566,0.629050164 L0.0605057566,30.9498972 C0.0605057566,31.2973273 0.342125822,31.5789474 0.689555921,31.5789474 L21.4902755,31.5789474 C21.8377056,31.5789474 22.1193257,31.2973273 22.1193257,30.9498972 L22.1193257,0.629050164 C22.1193257,0.281620066 21.8377056,0 21.4902755,0 Z M20.8612253,30.320847 L1.31866776,30.320847 L1.31866776,1.25810033 L20.8612253,1.25810033 L20.8612253,30.320847 Z" id="Shape"></path>
                            <path d="M17.4801192,5.34689556 L17.2466077,5.34689556 C16.8991776,5.34689556 16.6175576,5.62851562 16.6175576,5.97594572 C16.6175576,6.32337582 16.8991776,6.60499589 17.2466077,6.60499589 L17.4801192,6.60499589 C17.8275493,6.60499589 18.1091694,6.32337582 18.1091694,5.97594572 C18.1092311,5.62851562 17.8275493,5.34689556 17.4801192,5.34689556 Z" id="Shape"></path>
                            <path d="M14.4938734,5.34689556 L4.69971217,5.34689556 C4.35228207,5.34689556 4.07066201,5.62851562 4.07066201,5.97594572 C4.07066201,6.32337582 4.35228207,6.60499589 4.69971217,6.60499589 L14.4938117,6.60499589 C14.8412418,6.60499589 15.1228618,6.32337582 15.1228618,5.97594572 C15.1229235,5.62851562 14.8413035,5.34689556 14.4938734,5.34689556 Z" id="Shape"></path>
                            <path d="M17.4801192,10.2536595 L4.69971217,10.2536595 C4.35228207,10.2536595 4.07066201,10.5352796 4.07066201,10.8827097 C4.07066201,11.2301398 4.35228207,11.5117599 4.69971217,11.5117599 L17.4801192,11.5117599 C17.8275493,11.5117599 18.1091694,11.2301398 18.1091694,10.8827097 C18.1091694,10.5352796 17.8275493,10.2536595 17.4801192,10.2536595 Z" id="Shape"></path>
                            <path d="M17.4801192,15.1604235 L4.69971217,15.1604235 C4.35228207,15.1604235 4.07066201,15.4420436 4.07066201,15.7894737 C4.07066201,16.1369038 4.35228207,16.4185238 4.69971217,16.4185238 L17.4801192,16.4185238 C17.8275493,16.4185238 18.1091694,16.1369038 18.1091694,15.7894737 C18.1092311,15.4420436 17.8275493,15.1604235 17.4801192,15.1604235 Z" id="Shape"></path>
                            <path d="M17.4801192,20.1321957 L4.69971217,20.1321957 C4.35228207,20.1321957 4.07066201,20.4138158 4.07066201,20.7612459 C4.07066201,21.108676 4.35228207,21.3902961 4.69971217,21.3902961 L17.4801192,21.3902961 C17.8275493,21.3902961 18.1091694,21.108676 18.1091694,20.7612459 C18.1092311,20.4138158 17.8275493,20.1321957 17.4801192,20.1321957 Z" id="Shape"></path>
                            <path d="M17.4801192,25.0389597 L4.69971217,25.0389597 C4.35228207,25.0389597 4.07066201,25.3205798 4.07066201,25.6680099 C4.07066201,26.01544 4.35228207,26.29706 4.69971217,26.29706 L17.4801192,26.29706 C17.8275493,26.29706 18.1091694,26.01544 18.1091694,25.6680099 C18.1092311,25.3205798 17.8275493,25.0389597 17.4801192,25.0389597 Z" id="Shape"></path>
                            <path d="M27.7179893,6.74087171 L27.7179893,5.63011924 C27.7179893,5.31593339 27.4875,5.05633224 27.1865132,5.00933388 L27.1865132,3.05094572 C27.1865132,2.70351562 26.9048931,2.42189556 26.557463,2.42189556 L24.9783923,2.42189556 C24.6309622,2.42189556 24.3493421,2.70351562 24.3493421,3.05094572 L24.3493421,5.00933388 C24.0484169,5.05633224 23.817866,5.31593339 23.817866,5.63011924 L23.817866,25.8686472 C23.817866,26.705366 24.3757401,27.4138569 25.1388775,27.6427426 L25.1388775,28.5280016 C25.1388775,28.8754317 25.4204975,29.1570518 25.7679276,29.1570518 C26.1153577,29.1570518 26.3969778,28.8754317 26.3969778,28.5280016 L26.3969778,27.6427426 C27.1601768,27.4139186 27.7179893,26.7053043 27.7179893,25.8686472 L27.7179893,8.0467722 C28.1242599,8.21891447 28.4099507,8.62166941 28.4099507,9.08992599 L28.4099507,13.6191612 C28.4099507,13.9665913 28.6915707,14.2482113 29.0390008,14.2482113 C29.3864309,14.2482113 29.668051,13.9665913 29.668051,13.6191612 L29.668051,9.08992599 C29.6681127,7.92236842 28.826398,6.94817023 27.7179893,6.74087171 Z M25.6074424,3.67999589 L25.9284128,3.67999589 L25.9284128,5.0010074 L25.6074424,5.0010074 L25.6074424,3.67999589 Z M25.0759663,6.25916941 L26.459889,6.25916941 L26.459889,21.2308594 L25.0759663,21.2308594 L25.0759663,6.25916941 Z M26.459889,25.8686472 L26.459889,25.8686472 C26.459889,26.1961554 26.1934416,26.4626028 25.8659334,26.4626028 L25.6699219,26.4626028 C25.342352,26.4626028 25.0759663,26.1961554 25.0759663,25.8686472 L25.0759663,22.4890214 L26.459889,22.4890214 L26.459889,25.8686472 Z" id="Shape"></path>
                        </g>
                    </g>
                </g>
            </g>
        </g>
    </g>
</svg>