<?xml version="1.0" encoding="UTF-8"?>
<svg width="31px" height="18px" viewBox="0 0 31 18" version="1.1" xmlns="http://www.w3.org/2000/svg" xmlns:xlink="http://www.w3.org/1999/xlink">
    <title>016-transport</title>
    <defs></defs>
    <g id="Future" stroke="none" stroke-width="1" fill="none" fill-rule="evenodd">
        <g id="Lets-begin" transform="translate(-165.000000, -392.000000)" fill="#FFFFFF">
            <g id="016-transport" transform="translate(165.000000, 392.000000)">
                <path d="M6.2,13.228268 C5.63164648,13.228268 5.16664648,13.7033196 5.16664648,14.2839588 C5.16664648,14.8645979 5.63164648,15.3396495 6.2,15.3396495 C6.76835352,15.3396495 7.23335352,14.8645979 7.23335352,14.2839588 C7.23335352,13.7033196 6.76835352,13.228268 6.2,13.228268 Z" id="Shape"></path>
                <path d="M24.8,13.228268 C24.2316465,13.228268 23.7666465,13.7033196 23.7666465,14.2839588 C23.7666465,14.8645979 24.2316465,15.3396495 24.8,15.3396495 C25.3683535,15.3396495 25.8333535,14.8645979 25.8333535,14.2839588 C25.8333535,13.7033196 25.3683535,13.228268 24.8,13.228268 Z" id="Shape"></path>
                <path d="M30.9483535,12.7004536 L30.9483535,8.21381443 C30.9483535,7.47482474 30.38,6.89424742 29.656707,6.89424742 L27.5383535,6.89424742 C26.04,6.89424742 24.5933535,6.04973196 23.766707,4.73010309 L22.0100605,1.77420619 C21.3900605,0.718515464 20.201707,0.0323505155 18.961707,0.0323505155 L8.42170703,0.0323505155 C7.18170703,0.0323505155 6.04506055,0.718515464 5.37335352,1.77420619 L2.79,6.0496701 C2.48,6.57748454 1.91164648,6.89418557 1.29164648,6.89418557 C0.93,6.89418557 0.62,7.05253608 0.361646484,7.26364948 C0.155,7.52764948 0,7.84435052 0,8.21381443 L0,12.9643299 C0,13.9671959 0.826646484,14.8117732 1.80835352,14.8117732 L2.61986328,14.8117732 C2.8665918,16.6151753 4.36076758,17.9787835 6.20006055,17.9787835 C8.03935352,17.9787835 9.5335293,16.6151753 9.78025781,14.8117732 L21.2198633,14.8117732 C21.4665918,16.6151753 22.9607676,17.9787835 24.8000605,17.9787835 C26.6393535,17.9787835 28.1335293,16.6151753 28.3802578,14.8117732 L28.9334141,14.8117732 C30.07,14.8117732 31,13.8616701 30.9483535,12.7004536 Z M8.26664648,5.31074227 L8.26664648,3.19942268 L14.983293,3.19942268 L14.983293,5.31074227 L8.26664648,5.31074227 Z M16.0166465,3.19942268 L21.564375,3.19942268 L22.8560215,5.31074227 L16.0166465,5.31074227 L16.0166465,3.19942268 L16.0166465,3.19942268 Z M6.2,16.9230928 C4.75335352,16.9230928 3.61664648,15.7618763 3.61664648,14.2838969 C3.61664648,12.8059794 4.75329297,11.644701 6.2,11.644701 C7.64664648,11.644701 8.78335352,12.8059175 8.78335352,14.2838969 C8.78335352,15.7618763 7.64664648,16.9230928 6.2,16.9230928 Z M24.8,16.9230928 C23.3533535,16.9230928 22.2166465,15.7618763 22.2166465,14.2838969 C22.2166465,12.8059794 23.353293,11.644701 24.8,11.644701 C26.2466465,11.644701 27.3833535,12.8059175 27.3833535,14.2838969 C27.3833535,15.7618763 26.2466465,16.9230928 24.8,16.9230928 Z M28.8816465,13.7560825 L28.3801367,13.7560825 C28.1334082,11.9526804 26.6392324,10.5890722 24.7999395,10.5890722 C24.791584,10.5890722 24.7833496,10.5896289 24.7749941,10.5896907 C24.7660332,10.5896289 24.7571934,10.5890722 24.748293,10.5890722 C22.9399395,10.5890722 21.4416465,11.9614639 21.183293,13.7560825 L9.78019727,13.7560825 C9.54884766,12.0650103 8.22044922,10.7612784 6.53924414,10.6054021 C6.52695312,10.6042268 6.51448047,10.6036082 6.50212891,10.6025567 C6.45980664,10.5990928 6.41754492,10.5955052 6.37479883,10.5934639 C6.31685547,10.5906186 6.25860937,10.5890103 6.2,10.5890103 C6.14139062,10.5890103 6.08314453,10.5906186 6.02520117,10.5934639 C5.98245508,10.5955052 5.94019336,10.5990309 5.89787109,10.6025567 C5.88551953,10.6036082 5.87304687,10.6042268 5.86075586,10.6054021 C4.17955078,10.7612784 2.85115234,12.0650103 2.61980273,13.7560825 L1.80835352,13.7560825 C1.395,13.7560825 1.03335352,13.3866186 1.03335352,12.9643299 L1.03335352,10.5890722 L2.58335352,10.5890722 C2.89335352,10.5890722 3.1,10.3779588 3.1,10.0612577 C3.1,9.7445567 2.89335352,9.5334433 2.58335352,9.5334433 L1.03335352,9.5334433 L1.03335352,8.21381443 C1.03335352,8.16105155 1.03335352,8.1082268 1.13670703,8.05546392 C1.18835352,8.00270103 1.24006055,7.94987629 1.34335352,7.94987629 C2.27335352,7.94987629 3.20335352,7.42206186 3.66835352,6.63030928 L6.25170703,2.35484536 C6.71670703,1.56309278 7.54335352,1.08804124 8.42170703,1.08804124 L18.961707,1.08804124 C19.7436094,1.08804124 20.4836738,1.46529897 20.9285723,2.14373196 L8.16335352,2.14373196 C7.64670703,2.14373196 7.23335352,2.56602062 7.23335352,3.09383505 L7.23335352,5.4163299 C7.23335352,5.94414433 7.64670703,6.36643299 8.16335352,6.36643299 L23.6610527,6.36643299 C24.6678867,7.3996701 26.0564082,8.00270103 27.5383535,8.00270103 L29.656707,8.00270103 C29.811707,8.00270103 29.9150605,8.10828866 29.9150605,8.26663918 L29.9150605,9.5334433 L28.416707,9.5334433 C28.106707,9.5334433 27.9000605,9.7445567 27.9000605,10.0612577 C27.9000605,10.3779588 28.106707,10.5890722 28.416707,10.5890722 L29.9150605,10.5890722 L29.9150605,12.7003918 C29.915,13.2810309 29.45,13.7560825 28.8816465,13.7560825 Z" id="Shape"></path>
                <path d="M18.0833535,7.94993814 L15.5,7.94993814 C15.19,7.94993814 14.9833535,8.16105155 14.9833535,8.47775258 C14.9833535,8.79445361 15.19,9.00556701 15.5,9.00556701 L17.5666465,9.00556701 L17.5666465,9.53338144 C17.5666465,9.85008247 17.773293,10.0611959 18.083293,10.0611959 C18.393293,10.0611959 18.5999395,9.85008247 18.5999395,9.53338144 L18.5999395,8.47769072 C18.6,8.16105155 18.3933535,7.94993814 18.0833535,7.94993814 Z" id="Shape"></path>
            </g>
        </g>
    </g>
</svg>