<?xml version="1.0" encoding="UTF-8"?>
<svg width="30px" height="21px" viewBox="0 0 30 21" version="1.1" xmlns="http://www.w3.org/2000/svg" xmlns:xlink="http://www.w3.org/1999/xlink">
    <title>noun_683893_cc</title>
    <defs></defs>
    <g id="Budget" stroke="none" stroke-width="1" fill="none" fill-rule="evenodd">
        <g id="Needs" transform="translate(-57.000000, -359.000000)" fill="#FFFFFF">
            <g id="noun_683893_cc" transform="translate(57.000000, 359.000000)">
                <g id="Group">
                    <path d="M29.6419231,5.62022222 C29.6419231,4.42944444 28.6842308,3.46111111 27.5069231,3.46111111 C26.3296154,3.46111111 25.3715385,4.42944444 25.3715385,5.62022222 C25.3715385,5.94572222 25.4453846,6.25372222 25.5734615,6.531 L21.4976923,10.2098889 L16.6484615,4.45005556 C17.0307692,4.018 17.2653846,3.44983333 17.2653846,2.82566667 C17.2653846,1.47855556 16.1819231,0.383055556 14.8496154,0.383055556 C13.5176923,0.383055556 12.4342308,1.47855556 12.4342308,2.82566667 C12.4342308,3.44944444 12.6688462,4.01761111 13.0511538,4.45005556 L8.30923077,10.0803889 L4.415,6.56483333 C4.55,6.28133333 4.62807692,5.96555556 4.62807692,5.63111111 C4.62807692,4.44033333 3.67038462,3.472 2.49307692,3.472 C1.31576923,3.472 0.357692308,4.44033333 0.357692308,5.63111111 C0.357692308,6.75227778 1.20692308,7.6755 2.28923077,7.77972222 L3.93538462,16.6012778 C3.94615385,16.6588333 3.96923077,16.7113333 3.99538462,16.7615 L3.99538462,20.0336111 C3.99538462,20.3556111 4.25346154,20.6169444 4.57230769,20.6169444 L25.3784615,20.6169444 C25.6973077,20.6169444 25.9553846,20.3556111 25.9553846,20.0336111 L25.9553846,16.7615 C25.9811538,16.7113333 26.0046154,16.6588333 26.015,16.6012778 L27.6519231,7.77077778 C28.7615385,7.69533333 29.6419231,6.76083333 29.6419231,5.62022222 Z M14.8492308,1.54972222 C15.5453846,1.54972222 16.1111538,2.12216667 16.1111538,2.82566667 C16.1111538,3.52916667 15.545,4.10122222 14.8492308,4.10122222 C14.1534615,4.10122222 13.5876923,3.52877778 13.5876923,2.82566667 C13.5876923,2.12216667 14.1538462,1.54972222 14.8492308,1.54972222 Z M1.51153846,5.63111111 C1.51153846,5.08394444 1.95192308,4.63866667 2.49307692,4.63866667 C3.03423077,4.63866667 3.47423077,5.08394444 3.47423077,5.63111111 C3.47423077,6.17827778 3.03384615,6.62355556 2.49307692,6.62355556 C1.95192308,6.62355556 1.51153846,6.17827778 1.51153846,5.63111111 Z M5.14923077,19.4506667 L5.14923077,17.0768889 L24.8015385,17.0768889 L24.8015385,19.4506667 L5.14923077,19.4506667 Z M24.9696154,15.9102222 L4.98153846,15.9102222 L3.43461538,7.56622222 C3.51,7.5285 3.58346154,7.48727778 3.65346154,7.44138889 L7.98153846,11.3485556 C8.09769231,11.4535556 8.25038462,11.5103333 8.40538462,11.4951667 C8.56038462,11.4846667 8.70461538,11.4115556 8.80538462,11.2917778 L14.0088462,5.11272222 C14.2715385,5.2115 14.5538462,5.26827778 14.85,5.26827778 C15.1465385,5.26827778 15.4292308,5.2115 15.6915385,5.11272222 L20.8342308,11.2206111 C20.9153846,11.3162778 21.0242308,11.3831667 21.1461538,11.4111667 L21.4588462,11.4827222 C21.6396154,11.5235556 21.8315385,11.4749444 21.9707692,11.3489444 L26.3261538,7.41688889 C26.3896154,7.45927778 26.4557692,7.49816667 26.5234615,7.53394444 L24.9696154,15.9102222 Z M27.5073077,6.61188889 C26.9661538,6.61188889 26.5257692,6.16661111 26.5257692,5.61983333 C26.5257692,5.07266667 26.9661538,4.62738889 27.5073077,4.62738889 C28.0480769,4.62738889 28.4884615,5.07266667 28.4884615,5.61983333 C28.4880769,6.167 28.0480769,6.61188889 27.5073077,6.61188889 Z" id="Shape"></path>
                </g>
            </g>
        </g>
    </g>
</svg>