<?xml version="1.0" encoding="UTF-8"?>
<svg width="20px" height="27px" viewBox="0 0 20 27" version="1.1" xmlns="http://www.w3.org/2000/svg" xmlns:xlink="http://www.w3.org/1999/xlink">
    <title>Glyphs / Safari / Share</title>
    <defs></defs>
    <g id="Future" stroke="none" stroke-width="1" fill="none" fill-rule="evenodd">
        <g id="Congratulations" transform="translate(-316.000000, -27.000000)">
            <g id="Glyphs-/-Safari-/-Share" transform="translate(312.000000, 27.000000)">
                <polygon id="Bounds" points="0 0 29 0 29 29 0 29"></polygon>
                <path d="M10.5,5.5 L9.75,4.75 L14,0.5 L18.25,4.75 L17.5,5.5 L14.5,2.5 L14.5,17.5 L13.5,17.5 L13.5,2.5 L10.5,5.5 Z M5,8 L4.5,8 L4.5,8.5 L4.5,26.5 L4.5,27 L5,27 L23,27 L23.5,27 L23.5,26.5 L23.5,8.5 L23.5,8 L23,8 L16.5,8 L16.5,9 L22.5,9 L22.5,26 L5.5,26 L5.5,9 L11.5,9 L11.5,8 L5,8 Z" id="Share" fill="#2E3192"></path>
            </g>
        </g>
    </g>
</svg>