<?xml version="1.0" encoding="UTF-8"?>
<svg width="20px" height="26px" viewBox="0 0 20 26" version="1.1" xmlns="http://www.w3.org/2000/svg" xmlns:xlink="http://www.w3.org/1999/xlink">
    <!-- Generator: Sketch 41 (35326) - http://www.bohemiancoding.com/sketch -->
    <title>Path</title>
    <desc>Created with Sketch.</desc>
    <defs></defs>
    <g id="Ideas" stroke="none" stroke-width="1" fill="none" fill-rule="evenodd">
        <g id="Get-an-idea-Copy" transform="translate(-268.000000, -257.000000)" stroke="#2E3192">
            <g id="Group-2" transform="translate(269.000000, 258.000000)">
                <g id="001-symbol">
                    <path d="M17.7426818,1.2584 C17.5549091,1.1844 13.0958182,-0.5224 9.62631818,1.2764 C6.87722727,2.7032 2.05159091,1.6328 0.818181818,1.3232 L0.818181818,0.4 C0.818181818,0.1788 0.635318182,0 0.409090909,0 C0.182863636,0 0,0.1788 0,0.4 L0,1.6 C0.00327272727,1.6208 0,13.2 0,13.2 L0,13.6296 L0,23.6 C0,23.8212 0.182863636,24 0.409090909,24 C0.635318182,24 0.818181818,23.8212 0.818181818,23.6 L0.818181818,14.15 C1.74804545,14.3768 3.77468182,14.8028 5.87781818,14.8028 C7.33295455,14.8028 8.82327273,14.5984 10.0100455,13.9832 C13.1404091,12.3588 17.3965909,13.9848 17.4391364,14.0012 C17.5655455,14.0508 17.7079091,14.0356 17.8204091,13.9604 C17.9325,13.8864 18,13.7624 18,13.6296 L18,1.6296 C18,1.466 17.8981364,1.3192 17.7426818,1.2584 Z" id="Path"></path>
                </g>
            </g>
        </g>
    </g>
</svg>