<?xml version="1.0" encoding="UTF-8"?>
<svg width="22px" height="22px" viewBox="0 0 22 22" version="1.1" xmlns="http://www.w3.org/2000/svg" xmlns:xlink="http://www.w3.org/1999/xlink">
    <title>015-present</title>
    <defs></defs>
    <g id="Future" stroke="none" stroke-width="1" fill="none" fill-rule="evenodd">
        <g id="Lets-begin" transform="translate(-279.000000, -388.000000)" fill="#FFFFFF">
            <g id="015-present" transform="translate(279.000000, 388.000000)">
                <path d="M17.16,4.26081633 C17.577551,3.81183673 17.8379592,3.20122449 17.8379592,2.5277551 C17.8379592,1.12244898 16.7155102,0 15.355102,0 C14.322449,0 11.9428571,1.5444898 10.9910204,2.93183673 C10.0077551,1.5444898 7.63714286,0.0448979592 6.64489796,0.0448979592 C5.28897959,0.0448979592 4.16204082,1.16734694 4.16204082,2.57265306 C4.16204082,3.22367347 4.4044898,3.81183673 4.79510204,4.25632653 L0,4.25632653 L0,10.295102 L1.31102041,10.295102 L1.31102041,22 L8.19387755,22 L13.8106122,22 L20.6934694,22 L20.6934694,10.2995918 L22,10.2995918 L22,4.26081633 L17.16,4.26081633 L17.16,4.26081633 Z M15.355102,0.938367347 C16.1991837,0.938367347 16.8995918,1.63877551 16.8995918,2.57714286 C16.8995918,3.36734694 16.3473469,4.04530612 15.6334694,4.18897959 L11.835102,4.18897959 C11.5926531,4.11714286 11.5163265,4.03183673 11.5163265,3.98244898 C11.5163265,3.18326531 14.322449,0.938367347 15.355102,0.938367347 L15.355102,0.938367347 Z M6.64489796,0.938367347 C7.62816327,0.938367347 10.4836735,3.18326531 10.4836735,3.98244898 C10.4836735,4.05428571 10.317551,4.13510204 10.1963265,4.18897959 L6.37102041,4.18897959 C5.65714286,4.04530612 5.10489796,3.36734694 5.10489796,2.57714286 C5.10040816,1.68367347 5.80530612,0.938367347 6.64489796,0.938367347 L6.64489796,0.938367347 Z M8.18938776,21.0616327 L2.24489796,21.0616327 L2.24489796,10.2995918 L8.18938776,10.2995918 L8.18938776,21.0616327 Z M8.18938776,9.41061224 L0.938367347,9.41061224 L0.938367347,5.19918367 L8.19387755,5.19918367 L8.19387755,9.41061224 L8.18938776,9.41061224 Z M12.8677551,21.0616327 L9.12326531,21.0616327 L9.12326531,5.19469388 L12.8677551,5.19469388 L12.8677551,21.0616327 Z M19.7506122,21.0616327 L13.8061224,21.0616327 L13.8061224,10.2995918 L19.7506122,10.2995918 L19.7506122,21.0616327 L19.7506122,21.0616327 Z M21.0571429,9.41061224 L13.8061224,9.41061224 L13.8061224,5.19918367 L21.0616327,5.19918367 L21.0616327,9.41061224 L21.0571429,9.41061224 Z" id="Shape"></path>
            </g>
        </g>
    </g>
</svg>