<?xml version="1.0" encoding="UTF-8"?>
<svg width="27px" height="18px" viewBox="0 0 27 18" version="1.1" xmlns="http://www.w3.org/2000/svg" xmlns:xlink="http://www.w3.org/1999/xlink">
    <title>handshake</title>
    <defs></defs>
    <g id="Budget" stroke="none" stroke-width="1" fill="none" fill-rule="evenodd">
        <g id="Needs" transform="translate(-224.000000, -484.000000)" fill="#FFFFFF">
            <g id="handshake" transform="translate(224.000000, 484.000000)">
                <g id="Layer_1">
                    <path d="M18.1731534,3.55865625 L11.354135,1.16240625 C10.7081227,0.93740625 9.98480982,0.98240625 9.36640491,1.28615625 L9.02407362,1.45490625 C8.56026994,1.68553125 8.01364417,1.71928125 7.5277546,1.53928125 L6.94247853,1.32553125 C6.91487117,1.30865625 6.8872638,1.29178125 6.85965644,1.28053125 L3.37008589,0.07115625 C3.2872638,0.04303125 3.19339877,0.04865625 3.11609816,0.08803125 C3.03879755,0.12740625 2.97806135,0.19490625 2.95045399,0.27928125 L0.0185521472,8.99240625 C-0.0421840491,9.16678125 0.0516809816,9.35803125 0.222846626,9.41990625 L3.71793865,10.6405313 C3.75658896,10.6574063 3.78971779,10.6630313 3.8283681,10.6630313 C3.87806135,10.6630313 3.9277546,10.6517813 3.97192638,10.6292813 C4.04922699,10.5899063 4.10996319,10.5224063 4.13757055,10.4380313 L6.95904294,2.05678125 L7.31241718,2.18615625 C7.96395092,2.42240625 8.69830675,2.37740625 9.32223313,2.06803125 L9.66456442,1.89928125 C10.1228466,1.66865625 10.6639509,1.63490625 11.144319,1.80365625 L17.7093497,4.10990625 C17.6596564,4.40240625 17.5216196,4.88615625 17.1627239,5.13928125 C16.8424785,5.36428125 16.3786748,5.37553125 15.7933988,5.16740625 L12.9277546,4.17178125 C12.839411,4.14365625 12.745546,4.14928125 12.6627239,4.19428125 C12.5799018,4.23928125 12.5246871,4.31803125 12.4970798,4.40803125 C12.4915583,4.42490625 12.0664049,6.02240625 10.7412515,6.74240625 C9.90198773,7.20365625 8.86395092,7.22053125 7.65474847,6.79865625 C7.48358282,6.73678125 7.29585276,6.83240625 7.23511656,7.00678125 C7.17438037,7.18115625 7.2682454,7.37240625 7.43941104,7.43428125 C8.08542331,7.65928125 8.69830675,7.77178125 9.2670184,7.77178125 C9.91855215,7.77178125 10.5148712,7.62553125 11.0559755,7.32740625 C12.2375706,6.68053125 12.8062822,5.49928125 13.0216196,4.91428125 L15.5670184,5.80303125 C16.3676319,6.08428125 17.0246871,6.04490625 17.5326626,5.69053125 C18.3498405,5.11678125 18.3884908,3.93553125 18.3940123,3.88490625 C18.3995337,3.73865625 18.3056687,3.60365625 18.1731534,3.55865625 Z M3.62407362,9.89240625 L0.752907975,8.89115625 L3.46947239,0.81928125 L6.26333742,1.79240625 C6.28542331,1.80365625 6.3075092,1.81490625 6.32959509,1.82615625 L6.34063804,1.83178125 L3.62407362,9.89240625 Z" id="Shape"></path>
                    <path d="M26.9302086,8.54803125 L22.9437055,0.29615625 C22.9050552,0.21740625 22.8387975,0.15553125 22.7559755,0.12740625 C22.6731534,0.09928125 22.5792883,0.10490625 22.5019877,0.14428125 L19.1835828,1.79803125 C19.0179387,1.88240625 18.951681,2.07928125 19.0289816,2.24803125 L22.8940123,10.2917813 L21.5964663,11.5011563 C20.4976933,12.5305313 19.255362,13.3911563 17.9136442,14.0605313 L11.5584294,17.2274063 C11.3817423,17.3174063 11.1829693,17.3286563 10.9952393,17.2611563 C10.8075092,17.1936563 10.6584294,17.0586563 10.5700859,16.8786563 C10.4817423,16.6986563 10.4706994,16.4961563 10.5369571,16.3049063 C10.6032147,16.1136563 10.7357301,15.9617813 10.9124172,15.8717813 L14.4627239,14.0999063 C14.6283681,14.0155313 14.6946258,13.8186563 14.6173252,13.6499063 C14.5345031,13.4811563 14.3357301,13.4136563 14.1756074,13.4924063 L10.7026012,15.2249063 L8.95229448,16.0967813 C8.5878773,16.2767813 8.14063804,16.1249063 7.96395092,15.7536563 C7.7872638,15.3824063 7.93634356,14.9324063 8.30076074,14.7467813 L13.4026012,12.2042813 C13.5682454,12.1199063 13.6345031,11.9230313 13.5572025,11.7542813 C13.4743804,11.5855313 13.2756074,11.5180313 13.1154847,11.5967813 L9.33879755,13.4811563 L8.01364417,14.1392813 L7.38971779,14.4486563 C7.02530061,14.6286563 6.57806135,14.4767813 6.40137423,14.1055313 C6.22468712,13.7342813 6.37376687,13.2786563 6.73818405,13.0986563 L7.3676319,12.7836563 L11.9338896,10.5055313 C12.0995337,10.4211563 12.1657914,10.2242813 12.0884908,10.0555313 C12.0056687,9.88678125 11.8068957,9.81928125 11.646773,9.89803125 L8.71487117,11.3605313 L7.08051534,12.1761563 C6.90382822,12.2661563 6.70505521,12.2774063 6.51732515,12.2099063 C6.32959509,12.1424063 6.18051534,12.0074063 6.09217178,11.8274063 C6.00382822,11.6474063 5.99278528,11.4449063 6.05904294,11.2536563 C6.12530061,11.0624063 6.25781595,10.9105313 6.43450307,10.8205313 L8.85842945,9.61115625 C9.02407362,9.52678125 9.09033129,9.32990625 9.01303067,9.16115625 C8.93020859,8.99240625 8.73143558,8.92490625 8.57131288,9.00365625 L6.1473865,10.2130313 C5.81057669,10.3817813 5.55658896,10.6742813 5.43511656,11.0342813 C5.31364417,11.3942813 5.33573006,11.7824063 5.50137423,12.1255313 C5.6283681,12.3955313 5.83818405,12.6092813 6.09217178,12.7499063 C5.67253988,13.1717813 5.54554601,13.8299063 5.81609816,14.3924063 C6.05904294,14.8986563 6.55597546,15.1911563 7.07499387,15.1911563 C7.13573006,15.1911563 7.19646626,15.1855313 7.25720245,15.1799063 C7.21303067,15.4611563 7.24615951,15.7592813 7.37867485,16.0405313 C7.62161963,16.5467813 8.11855215,16.8392813 8.63757055,16.8392813 C8.84186503,16.8392813 9.05168098,16.7942813 9.25045399,16.6930313 L9.85229448,16.3892813 C9.82468712,16.6536563 9.8688589,16.9180313 9.99033129,17.1599063 C10.1559755,17.5030313 10.443092,17.7617813 10.7964663,17.8855313 C10.945546,17.9361563 11.1001472,17.9642813 11.2547485,17.9642813 C11.4645644,17.9642813 11.6743804,17.9136563 11.8676319,17.8180313 L18.2228466,14.6511563 C19.6253006,13.9536563 20.9118037,13.0536563 22.0602699,11.9792813 L23.5013742,10.6292813 L26.7756074,8.99803125 C26.9412515,8.91365625 27.0075092,8.71678125 26.9302086,8.54803125 Z M23.451681,9.92053125 L19.7688589,2.25365625 L22.4964663,0.89803125 L26.1737669,8.56490625 L23.451681,9.92053125 Z" id="Shape"></path>
                </g>
            </g>
        </g>
    </g>
</svg>