<?xml version="1.0" encoding="UTF-8"?>
<svg width="27px" height="24px" viewBox="0 0 27 24" version="1.1" xmlns="http://www.w3.org/2000/svg" xmlns:xlink="http://www.w3.org/1999/xlink">
    <title>heart</title>
    <defs></defs>
    <g id="Budget" stroke="none" stroke-width="1" fill="none" fill-rule="evenodd">
        <g id="Needs" transform="translate(-224.000000, -240.000000)" fill="#FFFFFF">
            <g id="heart" transform="translate(224.000000, 240.000000)">
                <g id="Capa_1">
                    <path d="M24.7652879,2.25005769 C23.3545379,0.825057692 21.4868648,0.0462115385 19.4935379,0.0462115385 C17.500211,0.0462115385 15.6268263,0.830826923 14.2160763,2.25582692 L13.4792879,3.00005769 L12.7310763,2.24428846 C11.3203263,0.819288462 9.44123019,0.0289038462 7.44790327,0.0289038462 C5.46028788,0.0289038462 3.58690327,0.813519231 2.18186481,2.23275 C0.771114808,3.65775 -0.00565442308,5.55005769 5.71153847e-05,7.56351923 C5.71153847e-05,9.57698077 0.782537885,11.4635192 2.19328788,12.8885192 L12.9195571,23.7231346 C13.0680571,23.8731346 13.267961,23.9539038 13.4621533,23.9539038 C13.6563456,23.9539038 13.8562494,23.8789038 14.0047494,23.7289038 L24.7538648,12.9115962 C26.1646148,11.4865962 26.941384,9.59428846 26.941384,7.58082692 C26.9470956,5.56736538 26.1760379,3.67505769 24.7652879,2.25005769 Z M23.6686725,11.8096731 L13.4621533,22.0789038 L3.27848019,11.7923654 C2.15901865,10.6615962 1.5421725,9.16159615 1.5421725,7.56351923 C1.5421725,5.96544231 2.15330712,4.46544231 3.27276865,3.34044231 C4.38651865,2.21544231 5.87151865,1.59236538 7.44790327,1.59236538 C9.02999942,1.59236538 10.520711,2.21544231 11.6401725,3.34621154 L12.9309802,4.65005769 C13.2336917,4.95582692 13.7191725,4.95582692 14.021884,4.65005769 L15.3012687,3.35775 C16.4207302,2.22698077 17.9114417,1.60390385 19.4878263,1.60390385 C21.064211,1.60390385 22.549211,2.22698077 23.6686725,3.35198077 C24.788134,4.48275 25.3992687,5.98275 25.3992687,7.58082692 C25.4049802,9.17890385 24.788134,10.6789038 23.6686725,11.8096731 Z" id="Shape"></path>
                </g>
            </g>
        </g>
    </g>
</svg>