<?xml version="1.0" encoding="UTF-8"?>
<svg width="34px" height="33px" viewBox="0 0 34 33" version="1.1" xmlns="http://www.w3.org/2000/svg" xmlns:xlink="http://www.w3.org/1999/xlink">
    <title>helm</title>
    <defs></defs>
    <g id="Budget" stroke="none" stroke-width="1" fill="none" fill-rule="evenodd">
        <g id="Needs" transform="translate(-165.000000, -356.000000)" fill="#FFFFFF">
            <g id="helm" transform="translate(165.000000, 356.000000)">
                <g id="Capa_1">
                    <g id="Group">
                        <path d="M16.7801333,13.1211356 C15.6864667,13.1211356 14.7968,13.9992712 14.7968,15.0787627 C14.7968,16.1582542 15.6864667,17.0363898 16.7801333,17.0363898 C17.8738,17.0363898 18.7634667,16.1582542 18.7634667,15.0787627 C18.7634667,13.9992712 17.8738,13.1211356 16.7801333,13.1211356 Z M16.7801333,15.9177458 C16.3115,15.9177458 15.9301333,15.541322 15.9301333,15.0787627 C15.9301333,14.6162034 16.3115,14.2397797 16.7801333,14.2397797 C17.2487667,14.2397797 17.6301333,14.6162034 17.6301333,15.0787627 C17.6301333,15.541322 17.2487667,15.9177458 16.7801333,15.9177458 Z" id="Shape"></path>
                        <path d="M24.2170667,18.5046102 C24.3236,18.280322 24.4193667,18.051 24.5049333,17.8160847 C24.5242,17.7629492 24.5457333,17.7109322 24.5638667,17.6572373 C24.6403667,17.4318305 24.7055333,17.2019492 24.7622,16.9687119 C24.7752333,16.9155763 24.7916667,16.863 24.8035667,16.8093051 C24.9271,16.2511017 24.9962333,15.673322 24.9962333,15.0787627 C24.9962333,13.0831017 24.2584333,11.2563559 23.0429333,9.84183051 C23.0423667,9.84071186 23.0418,9.83959322 23.0412333,9.8390339 C23.0344333,9.83120339 23.0270667,9.82505085 23.0202667,9.81722034 C22.8366667,9.60523729 22.6411667,9.40388136 22.4360333,9.21147458 C22.4065667,9.18350847 22.3754,9.15777966 22.3453667,9.12981356 C22.1544,8.95530508 21.9549333,8.79030508 21.7475333,8.63425424 C21.7146667,8.60964407 21.6812333,8.5850339 21.6483667,8.56098305 C21.4364333,8.40605085 21.2171333,8.26174576 20.9899,8.12750847 C20.9598667,8.10961017 20.9309667,8.09115254 20.9003667,8.07381356 C20.6538667,7.93174576 20.4,7.80142373 20.1382,7.68508475 C20.1319667,7.68228814 20.1263,7.67837288 20.1195,7.67557627 C20.1183667,7.67501695 20.1178,7.67501695 20.1166667,7.67501695 C19.0955333,7.22476271 17.9678667,6.96915254 16.779,6.96915254 C15.5680333,6.96915254 14.4211,7.23594915 13.3852333,7.70242373 C13.3835333,7.70298305 13.3824,7.70298305 13.3807,7.70354237 C13.3727667,7.70689831 13.3659667,7.7119322 13.3580333,7.71528814 C13.0985,7.83330508 12.8474667,7.96418644 12.6032333,8.10737288 C12.5749,8.12415254 12.5471333,8.1409322 12.5188,8.15827119 C12.2938333,8.29362712 12.0762333,8.43905085 11.8665667,8.59454237 C11.8297333,8.62138983 11.7934667,8.64767797 11.7572,8.67564407 C11.56,8.82666102 11.3713,8.9860678 11.1888333,9.15330508 C11.1491667,9.18966102 11.1078,9.22377966 11.0692667,9.26069492 C10.8771667,9.44415254 10.6941333,9.63655932 10.5207333,9.83791525 C10.506,9.85525424 10.4884333,9.87035593 10.4737,9.88769492 C10.4725667,9.88881356 10.472,9.89049153 10.4708667,9.89216949 C9.28086667,11.2994237 8.5629,13.1082712 8.5629,15.0798814 C8.5629,15.3634576 8.5782,15.643678 8.6071,15.9199831 L8.6071,15.9222203 C8.6088,15.9395593 8.61333333,15.9557797 8.6156,15.9725593 C8.6462,16.2455085 8.6904,16.5145424 8.74763333,16.7791017 C8.76236667,16.845661 8.78276667,16.9099831 8.7992,16.9759831 C8.8536,17.1980339 8.91366667,17.4172881 8.9862,17.6315085 C9.00546667,17.6885593 9.0287,17.7444915 9.0491,17.8009831 C9.13353333,18.0331017 9.22703333,18.2601864 9.3313,18.4822373 C9.3466,18.514678 9.36303333,18.5471186 9.3789,18.5795593 C9.503,18.8340508 9.63956667,19.0812712 9.78916667,19.3201017 C9.792,19.3251356 9.79426667,19.3301695 9.79766667,19.3352034 C9.7988,19.3368814 9.8005,19.338 9.80106667,19.339678 C11.2517333,21.646322 13.8334667,23.1906102 16.7801333,23.1906102 C16.7920333,23.1906102 16.8039333,23.1889322 16.8158333,23.1889322 C16.8277333,23.1889322 16.8402,23.1906102 16.8521,23.1906102 C17.1031333,23.1906102 17.3575667,23.1738305 17.6131333,23.148661 C17.6165333,23.1481017 17.6205,23.1481017 17.6239,23.1475424 C18.0426667,23.1061525 18.4659667,23.0351186 18.8904,22.9282881 C18.9283667,22.9187797 18.9601,22.8992034 18.9941,22.8829831 C20.9865,22.3309322 22.6712,21.0567966 23.7444667,19.3631695 C23.7456,19.3620508 23.7467333,19.3609322 23.7473,19.3592542 C23.7501333,19.3547797 23.7524,19.3497458 23.7552333,19.3452712 C23.9059667,19.1058814 24.0436667,18.8581017 24.1694667,18.6030508 C24.1853333,18.5694915 24.2017667,18.5370508 24.2170667,18.5046102 Z M23.8629,15.0871525 L21.5067,14.1760169 C21.4381333,13.8247627 21.3293333,13.4869322 21.1865333,13.1675593 L22.6298333,11.1439322 C23.4067333,12.2659322 23.8629,13.6200508 23.8629,15.0787627 C23.8634667,15.0815593 23.8629,15.0843559 23.8629,15.0871525 Z M23.7399333,16.352339 C23.7206667,16.4558136 23.6974333,16.5587288 23.6736333,16.6616441 C23.6509667,16.7572881 23.6260333,16.8512542 23.5994,16.9452203 C23.5665333,17.0604407 23.5336667,17.175661 23.4945667,17.2897627 C23.4758667,17.3456949 23.4537667,17.3999492 23.4333667,17.4547627 C23.3177667,17.7657458 23.1834667,18.0705763 23.0214,18.3664576 L20.8958333,17.5436949 C20.9083,17.523 20.9173667,17.5011864 20.9298333,17.4804915 C21.0012333,17.3607966 21.0669667,17.2377458 21.1276,17.111339 C21.1434667,17.0777797 21.1610333,17.045339 21.1763333,17.0117797 C21.3231,16.6873729 21.4353,16.3450678 21.5055667,15.987661 C21.5118,15.9557797 21.5146333,15.9227797 21.5208667,15.8908983 C21.5452333,15.7533051 21.5645,15.6140339 21.5764,15.4725254 C21.5781,15.4507119 21.5832,15.4294576 21.5849,15.4082034 L23.7563667,16.2483051 C23.7501333,16.2818644 23.7467333,16.317661 23.7399333,16.352339 Z M19.9665,16.8937627 C19.958,16.9083051 19.9489333,16.9222881 19.9398667,16.9368305 C19.8356,17.109661 19.7177333,17.2752203 19.584,17.4301525 C18.9329,18.1852373 17.9758,18.6729661 16.9036667,18.7082034 C16.4475,18.7143559 15.9879333,18.6405254 15.5453667,18.4744068 C15.4932333,18.4548305 15.4394,18.4458814 15.385,18.4419661 C14.8268333,18.2154407 14.3366667,17.8585932 13.9553,17.408339 C13.8289333,17.259 13.7173,17.0995932 13.6175667,16.9340339 C13.6056667,16.9138983 13.5926333,16.894322 13.5807333,16.8741864 C13.4855333,16.7086271 13.4039333,16.5357966 13.3359333,16.3584915 C13.3268667,16.3355593 13.3183667,16.3126271 13.3104333,16.2891356 C13.2458333,16.1095932 13.1954,15.9255763 13.1597,15.7382034 C13.1551667,15.7147119 13.1529,15.690661 13.1489333,15.6671695 C13.1166333,15.4730847 13.0962333,15.2767627 13.0962333,15.0782034 C13.0962333,14.9232712 13.1092667,14.7716949 13.1285333,14.620678 C13.1835,14.1905593 13.3144,13.7844915 13.5082,13.4142203 C13.5614667,13.3124237 13.6192667,13.2139831 13.6816,13.1188983 C13.6867,13.1110678 13.6912333,13.102678 13.6963333,13.0948475 C14.1819667,12.3615763 14.9254333,11.8190339 15.7850667,11.581322 C16.1018333,11.4935085 16.4344667,11.4431695 16.7795667,11.4431695 C17.1054,11.4431695 17.4199,11.4890339 17.7208,11.5678983 C17.8415,11.5992203 17.9605,11.6372542 18.0766667,11.680322 C18.0795,11.6814407 18.0829,11.6825593 18.0857333,11.683678 C18.1996333,11.7261864 18.3107,11.7748475 18.4189333,11.8279831 C18.4246,11.8307797 18.4302667,11.8330169 18.4353667,11.8358136 C18.5402,11.8878305 18.6416333,11.9454407 18.7402333,12.0064068 C18.7487333,12.0114407 18.7572333,12.0164746 18.7657333,12.0220678 C18.8598,12.0813559 18.9499,12.145678 19.0383,12.2133559 C19.0502,12.2223051 19.0626667,12.2306949 19.074,12.2396441 C19.1578667,12.3056441 19.2377667,12.3761186 19.3154,12.4488305 C19.3284333,12.4611356 19.3431667,12.4728814 19.3562,12.4851864 C19.4338333,12.5601356 19.5075,12.6401186 19.5789,12.7217797 C19.5891,12.7335254 19.6004333,12.7441525 19.6100667,12.7558983 C19.7687333,12.9432712 19.9081333,13.1479831 20.0265667,13.3655593 C20.2379333,13.7542881 20.3773333,14.1849661 20.4334333,14.6408136 L20.4334333,14.6447288 C20.4504333,14.7867966 20.4629,14.9311017 20.4629,15.0776441 C20.4629,15.279 20.4425,15.4781186 20.4085,15.675 C20.4051,15.6968136 20.4022667,15.7186271 20.3983,15.7404407 C20.3620333,15.9322881 20.3093333,16.1202203 20.2424667,16.3031186 C20.2356667,16.3226949 20.2283,16.3417119 20.2209333,16.3607288 C20.1518,16.5453051 20.0668,16.7231695 19.9665,16.8937627 Z M18.1792333,19.6478644 L18.1826333,21.9315763 C17.7610333,22.0154746 17.3252667,22.0591017 16.881,22.0652542 C16.7931667,22.0658136 16.7047667,22.0652542 16.6175,22.0618983 C16.5291,22.059661 16.4412667,22.0540678 16.3534333,22.0484746 C16.2078,22.0384068 16.0616,22.0272203 15.9159667,22.0076441 L15.9125667,19.751339 C16.0973,19.7848983 16.2854333,19.8055932 16.4769667,19.817339 C16.4843333,19.8178983 16.4917,19.8178983 16.4990667,19.8184576 C16.5925667,19.8240508 16.6855,19.8324407 16.7801333,19.8324407 C16.8254667,19.8324407 16.8696667,19.8268475 16.9144333,19.8257288 C17.0243667,19.8240508 17.1337333,19.8178983 17.2431,19.8095085 C17.2623667,19.8078305 17.2816333,19.8055932 17.3009,19.8039153 C17.5984,19.7765085 17.8930667,19.7295254 18.1792333,19.6478644 Z M12.6491333,17.521322 L10.5258333,18.3424068 C10.3688667,18.0521186 10.2379667,17.7534407 10.1252,17.4491695 C10.1025333,17.3882034 10.0781667,17.3283559 10.0572,17.2662712 C10.0220667,17.1633559 9.99316667,17.0582034 9.96313333,16.9536102 C9.93253333,16.8462203 9.90363333,16.7382712 9.87813333,16.6286441 C9.85773333,16.5397119 9.83846667,16.4502203 9.82146667,16.3601695 C9.81296667,16.3143051 9.80786667,16.2667627 9.79993333,16.220339 L11.9736667,15.3791186 C11.9753667,15.4037288 11.9810333,15.4277797 11.9827333,15.4529492 C11.9935,15.5849492 12.0105,15.7152712 12.0320333,15.8444746 C12.0394,15.8869831 12.0433667,15.9300508 12.0518667,15.9725593 C12.1204333,16.3266102 12.2292333,16.666678 12.3726,16.9888475 C12.3901667,17.0274407 12.41,17.0649153 12.4287,17.1035085 C12.4848,17.2209661 12.5448667,17.3356271 12.6100333,17.4474915 C12.6242,17.4715424 12.6344,17.4978305 12.6491333,17.521322 Z M10.8941667,11.1953898 L12.3437,13.2279661 C12.2179,13.5199322 12.1221333,13.8275593 12.0575333,14.1458136 L9.69736667,15.0591864 C9.7019,13.6301186 10.1422,12.3017288 10.8941667,11.1953898 Z M11.6846667,10.2339153 C11.7702333,10.146661 11.8586333,10.0627627 11.9487333,9.97998305 C12.0014333,9.93132203 12.0541333,9.88377966 12.1085333,9.83679661 C12.2179,9.74227119 12.3295333,9.64942373 12.4451333,9.56161017 C12.4734667,9.53979661 12.5023667,9.51966102 12.5307,9.49840678 C12.8168667,9.28698305 13.1177667,9.09401695 13.4328333,8.92622034 L14.7492,10.7714237 C14.7350333,10.7781356 14.7225667,10.7865254 14.7084,10.7932373 C14.5644667,10.8609153 14.4250667,10.9358644 14.2896333,11.0169661 C14.2641333,11.0320678 14.2392,11.0466102 14.2142667,11.0622712 C14.0703333,11.152322 13.9309333,11.2485254 13.7977667,11.3525593 C13.7892667,11.3592712 13.7802,11.3648644 13.7717,11.3715763 C13.4861,11.5975424 13.2282667,11.8559492 13.0010333,12.1395254 C12.9925333,12.1501525 12.9823333,12.1591017 12.9738333,12.1697288 L11.6325333,10.2898475 C11.6506667,10.2713898 11.6671,10.2518136 11.6846667,10.2339153 Z M18.7549667,10.7468136 L20.0747333,8.89713559 C20.2345333,8.98047458 20.3909333,9.07108475 20.5445,9.16672881 C20.5535667,9.17232203 20.5632,9.17791525 20.5722667,9.18350847 C20.7162,9.27411864 20.8561667,9.37144068 20.9933,9.47155932 C21.0171,9.48889831 21.0414667,9.50679661 21.0652667,9.52469492 C21.1956,9.62257627 21.3225333,9.7249322 21.4455,9.83176271 C21.4732667,9.85581356 21.5004667,9.88098305 21.5282333,9.90559322 C21.6472333,10.0118644 21.7645333,10.1203729 21.8756,10.2344746 C21.879,10.2378305 21.8818333,10.2411864 21.8846667,10.2445424 L20.5467667,12.1199492 C20.5399667,12.1115593 20.5320333,12.1048475 20.5258,12.0964576 C20.4124667,11.9583051 20.2929,11.8257458 20.1648333,11.7010169 C20.162,11.6982203 20.1586,11.6954237 20.1557667,11.6926271 C20.0305333,11.5712542 19.8973667,11.4577119 19.7596667,11.350322 C19.7336,11.3301864 19.7069667,11.3111695 19.6803333,11.2915932 C19.5585,11.2004237 19.4332667,11.1154068 19.3029333,11.0359831 C19.2768667,11.020322 19.2508,11.004661 19.2247333,10.989 C19.0774,10.9028644 18.9261,10.824 18.7691333,10.7535254 C18.7646,10.7524068 18.7600667,10.7490508 18.7549667,10.7468136 Z M19.0099667,8.44744068 L17.6165333,10.4011525 C17.3445333,10.3536102 17.0657333,10.3245254 16.7801333,10.3245254 C16.4718667,10.3245254 16.1709667,10.3558475 15.878,10.4112203 L14.4925,8.46869492 C15.2110333,8.22538983 15.9788667,8.08723729 16.7801333,8.08723729 C17.5593,8.08723729 18.3078667,8.217 19.0099667,8.44744068 Z M11.1491667,19.3027627 L13.3778667,18.4408475 C13.7802,18.8374068 14.2556333,19.1606949 14.7786667,19.3978475 L14.7820667,21.7827966 C13.3172333,21.3560339 12.0524333,20.4734237 11.1491667,19.3027627 Z M19.3148333,21.599339 L19.3114333,19.1153898 C19.6185667,18.9268983 19.9041667,18.709322 20.1603,18.4598644 L22.3941,19.3245763 C21.6053,20.3391864 20.5433667,21.1323051 19.3148333,21.599339 Z" id="Shape"></path>
                        <path d="M33.2984667,19.4409153 C33.0559333,18.893339 32.6116667,18.4716102 32.0484,18.2534746 L29.3437,17.2069831 C29.4638333,16.5145424 29.5295667,15.8042034 29.5295667,15.0787627 C29.5295667,11.7200339 28.1871333,8.66725424 26.0071667,6.40815254 L27.8086,3.88281356 C28.1571,3.3939661 28.2925333,2.80052542 28.1888333,2.21211864 C28.0845667,1.62315254 27.7547667,1.10969492 27.2595,0.765711864 C26.2383667,0.0564915254 24.8217,0.298118644 24.1020333,1.30769492 L22.3516,3.76255932 C20.6674667,2.95098305 18.7765,2.49457627 16.7795667,2.49457627 C14.7616667,2.49457627 12.8525667,2.96161017 11.1548333,3.78940678 L9.38456667,1.30713559 C8.66546667,0.299237288 7.24766667,0.0564915254 6.2271,0.765711864 C5.20426667,1.47605085 4.95833333,2.87435593 5.678,3.88337288 L7.51003333,6.45177966 C5.355,8.70640678 4.02956667,11.7418475 4.02956667,15.079322 C4.02956667,15.7958136 4.0936,16.4977627 4.2109,17.1818136 L1.43933333,18.2534746 C0.275966667,18.7042881 -0.2992,20.0047119 0.1564,21.1535593 C0.506033333,22.0344915 1.3634,22.5742373 2.2695,22.5742373 C2.54376667,22.5742373 2.8237,22.5244576 3.094,22.4198644 L5.7562,21.3895932 C7.6483,24.5978644 10.9338333,26.910661 14.7905667,27.5096949 L14.7945333,30.4617966 C14.7968,31.6939831 15.8134,32.6957288 17.0623333,32.6957288 L17.0651667,32.6957288 C18.3152333,32.6934915 19.3301333,31.6878305 19.3278667,30.4550847 L19.3233333,27.4112542 C22.9313,26.6874915 25.9879,24.4541186 27.7904667,21.4119661 L30.3937333,22.4193051 C30.6651667,22.5244576 30.9439667,22.573678 31.2182333,22.573678 C32.1237667,22.573678 32.9811333,22.0339322 33.3313333,21.153 C33.5523333,20.5964746 33.5404333,19.9884915 33.2984667,19.4409153 Z M25.0285333,1.95091525 C25.3889333,1.44640678 26.0967,1.32559322 26.6078333,1.67964407 C27.1184,2.03537288 27.2419333,2.73452542 26.8821,3.2390339 L25.1804,5.62398305 C24.6126,5.13233898 24.0028667,4.68711864 23.3529,4.3000678 L25.0285333,1.95091525 Z M6.87933333,1.67964407 C7.07766667,1.54261017 7.3049,1.47661017 7.52986667,1.47661017 C7.8863,1.47661017 8.23763333,1.64216949 8.45863333,1.95091525 L10.1552333,4.33027119 C10.1518333,4.33250847 10.149,4.33474576 10.1456,4.33698305 C9.5013,4.72571186 8.8961,5.17149153 8.33396667,5.66313559 L6.60506667,3.23959322 C6.24523333,2.73452542 6.36876667,2.03537288 6.87933333,1.67964407 Z M2.67976667,21.3784068 C2.09893333,21.6015763 1.4399,21.319678 1.21096667,20.7446949 C0.983166667,20.1708305 1.2716,19.5197797 1.853,19.2943729 L4.4523,18.2892712 C4.64723333,19.0186271 4.90846667,19.7211356 5.22636667,20.392322 L2.67976667,21.3784068 Z M18.1939667,30.4562034 C18.1951,31.0731356 17.6873667,31.5754068 17.0629,31.5765254 L17.0612,31.5765254 C16.4367333,31.5765254 15.9284333,31.0753729 15.9273,30.4595593 L15.9233333,27.6321864 C16.0712333,27.6416949 16.2197,27.6489661 16.3687333,27.6534407 C16.4588333,27.6567966 16.5495,27.6590339 16.6384667,27.6601525 C16.6860667,27.6607119 16.7325333,27.6635085 16.7801333,27.6635085 C16.8243333,27.6635085 16.8674,27.6607119 16.9110333,27.6601525 C17.0085,27.6590339 17.1076667,27.6567966 17.2051333,27.6528814 C17.5366333,27.6422542 17.8653,27.6204407 18.19,27.5846441 L18.1939667,30.4562034 Z M18.6677,26.3793051 C18.6665667,26.3793051 18.6654333,26.3787458 18.6643,26.3793051 C18.3401667,26.4318814 18.0341667,26.4693559 17.7372333,26.4967627 C17.4204667,26.5224915 17.1031333,26.5448644 16.7801333,26.5448644 C16.4690333,26.5448644 16.1636,26.5224915 15.8593,26.499 C15.7153667,26.4866949 15.5759667,26.4771864 15.4224,26.4592881 L15.4207,26.4592881 C11.5537667,26.0112712 8.2637,23.6861695 6.5144,20.4297966 C6.51383333,20.4292373 6.51383333,20.4281186 6.51383333,20.427 C6.49343333,20.3889661 6.477,20.3498136 6.45716667,20.3117797 C6.34666667,20.0997966 6.239,19.8861356 6.14153333,19.666322 C6.0809,19.5304068 6.0282,19.3916949 5.97323333,19.2541017 C5.90126667,19.0728814 5.83213333,18.8905424 5.76923333,18.7048475 C5.7273,18.5823559 5.68593333,18.4598644 5.64853333,18.3368136 C5.33743333,17.3026271 5.16403333,16.2108305 5.16403333,15.0782034 C5.16403333,11.8822373 6.49853333,8.98998305 8.64336667,6.90874576 L8.64393333,6.90874576 C8.6479,6.90538983 8.65186667,6.9020339 8.65526667,6.89867797 C8.86153333,6.699 9.07573333,6.50771186 9.29673333,6.32313559 C9.40043333,6.23644068 9.50866667,6.15533898 9.6152,6.07255932 C9.78066667,5.94391525 9.9484,5.81862712 10.1206667,5.69949153 C10.2164333,5.63237288 10.3127667,5.56581356 10.4102333,5.50205085 C12.2411333,4.31125424 14.4290333,3.61266102 16.7812667,3.61266102 C18.7629,3.61266102 20.6289333,4.10710169 22.2632,4.97461017 L22.2637667,4.97516949 C22.3584,5.02550847 22.4496333,5.08311864 22.5425667,5.13625424 C22.7284333,5.24140678 22.9120333,5.35047458 23.0916667,5.46569492 C23.2231333,5.55015254 23.3523333,5.6379661 23.4804,5.72745763 C23.6096,5.8180678 23.7354,5.91259322 23.8606333,6.00823729 C24.2125333,6.27727119 24.5536667,6.5619661 24.8766667,6.87183051 C24.8772333,6.87238983 24.8783667,6.87294915 24.8795,6.87350847 C27.0464333,8.95754237 28.3985,11.8632203 28.3985,15.0787627 C28.3985,15.8892203 28.3101,16.6795424 28.1474667,17.4430169 L28.1474667,17.4430169 C28.1474667,17.4435763 28.1474667,17.4441356 28.1469,17.4446949 C28.0828667,17.7450508 28.0029667,18.0392542 27.9157,18.3301017 C27.8749,18.4648983 27.829,18.5985763 27.7831,18.7322542 C27.7224667,18.9095593 27.6573,19.0840678 27.5881667,19.2574576 C27.5326333,19.3967288 27.4788,19.5371186 27.4170333,19.6741525 C27.3088,19.9180169 27.1915,20.1568475 27.0662667,20.3912034 C27.0560667,20.4107797 27.0475667,20.4309153 27.0368,20.4499322 C27.0362333,20.4504915 27.0368,20.4510508 27.0362333,20.4516102 C25.364,23.5474576 22.2960667,25.790339 18.6677,26.3793051 Z M32.2767667,20.7446949 C32.0484,21.3185593 31.3888,21.6015763 30.8079667,21.3784068 L28.3231333,20.4169322 C28.6427333,19.7463051 28.9045333,19.0437966 29.1011667,18.315 L31.6347333,19.2949322 C31.9169333,19.404 32.1390667,19.6148644 32.2603333,19.8889322 C32.3810333,20.1624407 32.3867,20.4667119 32.2767667,20.7446949 Z" id="Shape"></path>
                    </g>
                </g>
            </g>
        </g>
    </g>
</svg>