<?xml version="1.0" encoding="UTF-8"?>
<svg width="24px" height="27px" viewBox="0 0 24 27" version="1.1" xmlns="http://www.w3.org/2000/svg" xmlns:xlink="http://www.w3.org/1999/xlink">
    <title>kite</title>
    <defs></defs>
    <g id="Budget" stroke="none" stroke-width="1" fill="none" fill-rule="evenodd">
        <g id="Needs" transform="translate(-116.000000, -478.000000)" fill="#FFFFFF">
            <g id="kite" transform="translate(116.000000, 478.000000)">
                <g id="Capa_1">
                    <path d="M23.2775812,17.4553134 C22.5031088,15.9262673 20.3146355,14.4922189 16.7730427,13.1929217 C14.717429,12.438788 12.7767722,11.9481221 12.0577243,11.7764793 L9.7665562,0.373396313 C9.71714005,0.127347926 9.48458986,-0.0346520737 9.24051332,0.00634562212 L2.39729633,1.16187097 C2.22354278,1.19123502 2.08154799,1.31870737 2.03176398,1.49010138 L0.0688515328,8.24178111 C-0.00116489681,8.4826659 0.129180926,8.736553 0.363876979,8.81624654 L11.520339,12.6065737 C11.5281867,12.6092488 13.9437536,13.1463249 16.4698016,14.0738433 C19.7337812,15.2724194 21.8050904,16.5892604 22.4598237,17.8820253 C22.7319191,18.4194124 22.7515997,18.9450415 22.5197852,19.4889608 C22.2166055,20.2004793 21.4459343,20.4698571 20.3948295,20.4697949 C18.720137,20.4696705 16.3341218,19.7854631 13.9974614,19.1153157 C11.7896141,18.4820599 9.50653897,17.8272788 7.65091966,17.6905991 C5.38084232,17.5233733 4.02349229,18.1614816 3.50253817,19.6416912 C3.09175877,20.8088502 3.21621879,21.8736083 3.87254618,22.806477 C5.16484592,24.6431613 8.53918413,25.9026429 13.9019399,26.5498341 C17.2562909,26.9547097 20.3834258,26.9850691 21.2436714,26.9850691 C21.3898966,26.9850691 21.470765,26.9841982 21.4759764,26.9841359 C21.7299239,26.9809631 21.933229,26.7695668 21.9301022,26.5118848 C21.9269754,26.2542028 21.7190106,26.0457926 21.4646953,26.0510184 C21.4294418,26.0515161 17.86731,26.0894654 14.0012627,25.622129 C8.98331637,25.0155622 5.73969185,23.8543756 4.62090042,22.2641129 C4.14329273,21.5852558 4.06076898,20.8301267 4.36854698,19.9556129 C5.21003166,17.5648687 9.55013064,18.809606 13.7472539,20.0134078 C15.8698185,20.6221521 17.8746672,21.1971774 19.5511376,21.3586797 C20.3050711,21.4313433 22.5997339,21.6524447 23.3638449,19.8594332 C23.7068764,19.0544101 23.6778766,18.24553 23.2775812,17.4553134 Z M10.8727177,10.5500945 L5.56201443,4.46041244 L9.02445562,1.35136866 L10.8727177,10.5500945 Z M10.1840184,11.1684816 L1.41081266,8.18784332 L4.87325386,5.07879954 L10.1840184,11.1684816 Z M4.95258946,3.76158525 L3.36753276,1.94406221 L7.81265638,1.19347465 L4.95258946,3.76158525 Z M2.6788335,2.56244931 L4.2638902,4.37997235 L1.40382328,6.94808295 L2.6788335,2.56244931 Z" id="Shape"></path>
                </g>
            </g>
        </g>
    </g>
</svg>