<?xml version="1.0" encoding="UTF-8"?>
<svg width="28px" height="24px" viewBox="0 0 28 24" version="1.1" xmlns="http://www.w3.org/2000/svg" xmlns:xlink="http://www.w3.org/1999/xlink">
    <title>002-social</title>
    <defs></defs>
    <g id="Ideas" stroke="none" stroke-width="1" fill="none" fill-rule="evenodd">
        <g id="Get-an-idea-Copy" transform="translate(-13.000000, -257.000000)" stroke="#2E3192">
            <g id="Group" transform="translate(14.000000, 258.000000)">
                <g id="002-social">
                    <path d="M24.130684,12.0606075 L24.064771,12.3323102 C25.9260112,12.8547882 24.9353569,14.972486 23.6001736,15.1098321 L23.5342606,15.3815348 C25.3188992,15.8296243 24.4675528,18.0101039 23.0696631,18.1590568 L23.0037501,18.4297042 C24.4611397,18.6658833 24.108238,21.121231 21.9003312,21.121231 L10.9113897,21.1254516 C10.135398,21.1254516 9.42852575,20.252486 8.85775494,20.252486 L8.35966655,20.252486 L8.35966655,11.8045564 C8.9804956,11.4247002 9.74366107,10.9315907 10.16782,10.5758273 C10.9692863,9.90105516 14.2496152,4.66818545 14.2496152,4.01328537 C14.2496152,3.35838529 14.177289,0.525291767 14.177289,0.525291767 C14.177289,0.525291767 14.820386,-0.293157474 16.2563983,0.303884892 C16.2563983,0.303884892 17.4649218,2.54099121 17.5881969,4.32385292 C17.5881969,4.32385292 17.0439694,7.9964988 16.7516364,9.14872902 L24.3699303,9.14872902 C26.2416809,9.15083933 25.8845038,11.7889049 24.130684,12.0606075 Z" id="Path"></path>
                    <polygon id="Path" points="7.32750485 21.9243805 0.334315405 21.9243805 0.334315405 10.9493525 7.32750485 10.9493525"></polygon>
                </g>
            </g>
        </g>
    </g>
</svg>