<?xml version="1.0" encoding="UTF-8"?>
<svg width="26px" height="26px" viewBox="0 0 26 26" version="1.1" xmlns="http://www.w3.org/2000/svg" xmlns:xlink="http://www.w3.org/1999/xlink">
    <title>magic-wand</title>
    <defs></defs>
    <g id="Future" stroke="none" stroke-width="1" fill="none" fill-rule="evenodd">
        <g id="Big_Decision_safe" transform="translate(-190.000000, -318.000000)" fill="#2E3192">
            <g id="magic-wand" transform="translate(190.000000, 318.000000)">
                <g id="magic-wand-auto-fix-button">
                    <polygon id="Shape" points="8.0886194 4.45298507 11.1809701 6.18470149 9.44920522 3.09235075 11.1809701 0 8.0886194 1.73171642 4.99626866 0 6.72798507 3.09235075 4.99626866 6.18470149"></polygon>
                    <polygon id="Shape" points="22.931903 16.575 19.8395522 14.8432836 21.5712687 17.9356343 19.8395522 21.0279851 22.931903 19.2962687 26.0242537 21.0279851 24.2925373 17.9356343 26.0242537 14.8432836"></polygon>
                    <polygon id="Shape" points="26.0242537 0 22.931903 1.73171642 19.8395522 0 21.5712687 3.09235075 19.8395522 6.18470149 22.931903 4.45298507 26.0242537 6.18470149 24.2925373 3.09235075"></polygon>
                    <path d="M16.6235075,6.55578358 C16.1287313,6.06100746 15.3865672,6.06100746 14.891791,6.55578358 L0.419541045,21.0279851 C-0.0752350746,21.5227612 -0.0752350746,22.2649254 0.419541045,22.7597015 L3.26450373,25.6046157 C3.75927985,26.0993918 4.50144403,26.0993918 4.99622015,25.6046157 L19.4684701,11.1324627 C19.9632463,10.6376866 19.9632463,9.89552239 19.4684701,9.40074627 L16.6235075,6.55578358 Z M15.2628731,13.3589552 L12.6652985,10.7613806 L15.6339552,7.79272388 L18.2315299,10.3902985 L15.2628731,13.3589552 Z" id="Shape"></path>
                </g>
            </g>
        </g>
    </g>
</svg>