<?xml version="1.0" encoding="UTF-8"?>
<svg width="38px" height="41px" viewBox="0 0 38 41" version="1.1" xmlns="http://www.w3.org/2000/svg" xmlns:xlink="http://www.w3.org/1999/xlink">
    <title>magic</title>
    <defs>
        <filter x="-50%" y="-50%" width="200%" height="200%" filterUnits="objectBoundingBox" id="filter-1">
            <feOffset dx="0" dy="2" in="SourceAlpha" result="shadowOffsetOuter1"></feOffset>
            <feGaussianBlur stdDeviation="2" in="shadowOffsetOuter1" result="shadowBlurOuter1"></feGaussianBlur>
            <feColorMatrix values="0 0 0 0 0   0 0 0 0 0   0 0 0 0 0  0 0 0 0.5 0" type="matrix" in="shadowBlurOuter1" result="shadowMatrixOuter1"></feColorMatrix>
            <feMerge>
                <feMergeNode in="shadowMatrixOuter1"></feMergeNode>
                <feMergeNode in="SourceGraphic"></feMergeNode>
            </feMerge>
        </filter>
    </defs>
    <g id="Future" stroke="none" stroke-width="1" fill="none" fill-rule="evenodd">
        <g id="Lets-begin" transform="translate(-51.000000, -102.000000)" fill="#FFFFFF">
            <g id="Group-2" filter="url(#filter-1)" transform="translate(25.000000, 75.000000)">
                <g id="future">
                    <g id="magic" transform="translate(30.000000, 29.000000)">
                        <g id="Layer_1">
                            <path d="M25.4256968,27.0797508 L25.4256968,24.333826 C27.8258868,21.5806799 29.1438978,18.0999578 29.1438978,14.4947635 L29.1438978,14.3213894 C29.1438978,6.42453547 22.7194257,0 14.8226985,0 C6.92597128,0 0.501435811,6.42453547 0.501435811,14.3212627 L0.501435811,14.4946368 C0.501435811,18.0999578 1.81944679,21.5806166 4.21963682,24.3336993 L4.21963682,27.0796242 C1.84643159,27.3697424 0.00190033784,29.396136 0.00190033784,31.8463682 C0.00190033784,32.1701225 0.264273649,32.4324324 0.587964527,32.4324324 L29.0573691,32.4324324 C29.3809966,32.4324324 29.6434333,32.1701225 29.6434333,31.8463682 C29.6433699,29.396136 27.798902,27.3698691 25.4256968,27.0797508 Z M1.67350084,14.4946368 L1.67350084,14.3212627 C1.67350084,7.07071368 7.57221284,1.17206503 14.8226985,1.17206503 C22.0731841,1.17206503 27.9718961,7.07071368 27.9718961,14.3212627 L27.9718961,14.4946368 C27.9718961,17.8323902 26.7438978,21.05644 24.5090372,23.6019426 L5.1363598,23.6019426 C2.90149916,21.05644 1.67350084,17.8323902 1.67350084,14.4946368 Z M24.2536318,24.7741343 L24.2536318,27.0426943 L5.39170186,27.0426943 L5.39170186,24.7741343 L24.2536318,24.7741343 Z M1.22122044,31.2603674 C1.50228041,29.5355574 3.00259713,28.2146959 4.80563767,28.2146959 L24.8396326,28.2146959 C26.6426731,28.2146959 28.1429899,29.5354941 28.4240498,31.2603674 L1.22122044,31.2603674 Z" id="Shape"></path>
                            <path d="M26.0580025,10.9283361 C25.9638725,10.6187078 25.6366976,10.4440034 25.3268792,10.5381334 C25.0171875,10.6322635 24.8424831,10.9596917 24.9366765,11.2692568 C25.9176943,14.4958404 25.1915118,18.1000845 23.0415329,20.6756123 C22.8340794,20.9241132 22.8673353,21.2936655 23.1158361,21.5010557 C23.2254856,21.5925253 23.358636,21.6371833 23.4910262,21.6371833 C23.6586993,21.6371833 23.8252956,21.5655405 23.9411529,21.4267525 C26.3414696,18.5513514 27.1526605,14.5286529 26.0580025,10.9283361 Z" id="Shape"></path>
                            <path d="M24.7004645,8.05964949 C23.6969595,6.50441301 22.2249578,5.22041807 20.3253801,4.24339105 C20.0376056,4.09548142 19.6842061,4.20886824 19.5361698,4.49657939 C19.3881968,4.78429054 19.5015836,5.13762669 19.7893581,5.28572635 C21.5039696,6.16754645 22.8249578,7.31459037 23.7156461,8.69512247 C23.827766,8.86881334 24.0162162,8.96351351 24.2085938,8.96351351 C24.3174198,8.96351351 24.4275127,8.93317145 24.5257601,8.86982686 C24.7976985,8.69436233 24.8759291,8.33158784 24.7004645,8.05964949 Z" id="Shape"></path>
                            <path d="M18.0223606,3.42282517 C17.2100296,3.23304476 16.3716005,3.13682432 15.530511,3.13682432 C15.2068834,3.13682432 14.9444468,3.39913429 14.9444468,3.72288851 C14.9444468,4.04664274 15.2068201,4.3089527 15.530511,4.3089527 C16.2819679,4.3089527 17.0306377,4.39491132 17.7556799,4.56429476 C17.8005279,4.57474662 17.8453758,4.57975084 17.889527,4.57975084 C18.1556377,4.57975084 18.3965372,4.39719172 18.4596917,4.12683699 C18.5332981,3.81176098 18.3375633,3.49655828 18.0223606,3.42282517 Z" id="Shape"></path>
                        </g>
                    </g>
                </g>
            </g>
        </g>
    </g>
</svg>