<?xml version="1.0" encoding="UTF-8"?>
<svg width="38px" height="37px" viewBox="0 0 38 37" version="1.1" xmlns="http://www.w3.org/2000/svg" xmlns:xlink="http://www.w3.org/1999/xlink">
    <title>piggy-bank</title>
    <defs>
        <filter x="-50%" y="-50%" width="200%" height="200%" filterUnits="objectBoundingBox" id="filter-1">
            <feOffset dx="0" dy="2" in="SourceAlpha" result="shadowOffsetOuter1"></feOffset>
            <feGaussianBlur stdDeviation="2" in="shadowOffsetOuter1" result="shadowBlurOuter1"></feGaussianBlur>
            <feColorMatrix values="0 0 0 0 0   0 0 0 0 0   0 0 0 0 0  0 0 0 0.5 0" type="matrix" in="shadowBlurOuter1" result="shadowMatrixOuter1"></feColorMatrix>
            <feMerge>
                <feMergeNode in="shadowMatrixOuter1"></feMergeNode>
                <feMergeNode in="SourceGraphic"></feMergeNode>
            </feMerge>
        </filter>
    </defs>
    <g id="Future" stroke="none" stroke-width="1" fill="none" fill-rule="evenodd">
        <g id="Lets-begin" transform="translate(-271.000000, -102.000000)" fill="#FFFFFF">
            <g id="Group-2" filter="url(#filter-1)" transform="translate(25.000000, 75.000000)">
                <g id="savings" transform="translate(220.000000, 0.000000)">
                    <g id="piggy-bank" transform="translate(30.000000, 29.000000)">
                        <g id="Layer_1">
                            <path d="M29.9765808,10.7038056 C29.9765808,10.3740047 29.709192,10.1066745 29.3794496,10.1066745 C29.0497073,10.1066745 28.7823185,10.3740047 28.7823185,10.7038056 C28.7823185,11.2133489 28.4382319,11.6430913 27.9704918,11.7755269 C27.3336651,10.4173302 26.2966042,9.17622951 24.9038642,8.135363 C23.0650468,6.76100703 20.7673302,5.86012881 18.2746487,5.51305621 C18.8459602,4.93044496 19.1990632,4.13319672 19.1990632,3.25468384 C19.1990632,1.47470726 17.7509368,0.0265807963 15.9709016,0.0265807963 C14.1908665,0.0265807963 12.74274,1.47470726 12.74274,3.25468384 C12.74274,4.13501171 13.0973068,4.93372365 13.6706674,5.51668618 C12.3809133,5.7043911 11.1259368,6.05035129 9.95550351,6.54502342 C8.62617096,5.39484778 6.72874707,5.10837237 5.10462529,5.84724824 C4.92991803,5.92669789 4.80409836,6.085363 4.76639344,6.27359485 C4.72868852,6.4618267 4.78384075,6.65667447 4.91446136,6.79730679 L6.58062061,8.59028103 C5.62131148,9.39777518 4.82845433,10.3251756 4.25556206,11.3112412 L1.27570258,11.3112412 C0.572306792,11.3111827 0,11.8834895 0,12.5868852 L0,16.0958431 C0,16.6558548 0.358957845,17.1449649 0.893208431,17.312822 L3.570726,18.1543326 C4.32336066,20.3107728 6.07289227,21.4224824 7.2484192,22.1693208 C7.2942623,22.1984192 7.33934426,22.2270492 7.38384075,22.2553864 L8.2,28.0313232 C8.24162763,28.3258782 8.49373536,28.5449063 8.7912178,28.5449063 L11.6123536,28.5449063 C11.9098361,28.5449063 12.1619438,28.3259368 12.2035714,28.0313232 L12.7125293,24.4293326 C13.7624707,24.6363583 14.8449649,24.7411007 15.9391101,24.7411007 C17.0998244,24.7411007 18.2443208,24.6239461 19.3507026,24.3923888 L19.8649297,28.0313232 C19.9065574,28.3259368 20.1586651,28.5449063 20.4561475,28.5449063 L23.2772834,28.5449063 C23.5747658,28.5449063 23.8268735,28.3259368 23.8685012,28.0313232 L24.7064988,22.1014637 C27.2535714,20.2765808 28.7084895,17.7184426 28.7084895,15.0464286 C28.7084895,14.3124707 28.6025176,13.5917447 28.39637,12.8940281 C29.313466,12.5882319 29.9765808,11.7222482 29.9765808,10.7038056 Z M15.9709602,1.22078454 C17.0923888,1.22078454 18.0048009,2.13313817 18.0048009,3.25456674 C18.0048009,4.37599532 17.0924473,5.28846604 15.9709602,5.28846604 C14.8494731,5.28846604 13.9371194,4.37611241 13.9371194,3.25456674 C13.9370609,2.13307963 14.8495316,1.22078454 15.9709602,1.22078454 Z M23.8146956,21.2680913 C23.6762295,21.3627635 23.5838993,21.5113583 23.5604215,21.6775176 L22.7587237,27.3507026 L20.975,27.3507026 L20.4422131,23.580445 C20.4185012,23.4125293 20.3245316,23.2626464 20.1837237,23.1681499 C20.0429742,23.0735948 19.8685597,23.0434426 19.704274,23.0851288 C18.4956674,23.391452 17.2288642,23.5468384 15.9392272,23.5468384 C14.7148712,23.5468384 13.5075527,23.4059719 12.3508782,23.128103 C12.1872951,23.0887588 12.0146956,23.1203162 11.8755269,23.2149883 C11.7364169,23.3096604 11.6436183,23.458548 11.6201405,23.6251756 L11.0936768,27.3507026 L9.30995316,27.3507026 L8.5280445,21.81774 C8.50398126,21.6471897 8.40737705,21.4954333 8.2631733,21.4012295 C8.14461358,21.3238876 8.01932084,21.2442623 7.88881733,21.1612998 C6.68149883,20.3942623 5.17898126,19.4396956 4.61838407,17.5108314 C4.56258782,17.3189696 4.414637,17.16774 4.22400468,17.1077869 L1.25117096,16.1734778 C1.21715457,16.1627635 1.19420375,16.1315574 1.19420375,16.0958431 L1.19420375,12.5868852 C1.19420375,12.5419789 1.23067916,12.505445 1.27558548,12.505445 L4.60737705,12.505445 C4.82909836,12.505445 5.03255269,12.3826112 5.13583138,12.1864169 C5.72722482,11.0625293 6.65392272,10.0067916 7.81563232,9.13325527 C7.95087822,9.03155738 8.03659251,8.87734192 8.0515808,8.70884075 C8.06656909,8.54039813 8.00936768,8.3734192 7.89420375,8.24953162 L6.43512881,6.6793911 C7.50772834,6.50128806 8.62552693,6.85403981 9.40122951,7.66434426 C9.57693208,7.84783372 9.84964871,7.90017564 10.0806792,7.79449649 C11.8683841,6.9779274 13.8942037,6.54625293 15.9390515,6.54625293 C22.3216042,6.54625293 27.5141686,10.3594848 27.5141686,15.0466628 C27.5144028,17.3932084 26.1659251,19.6608899 23.8146956,21.2680913 Z" id="Shape"></path>
                            <path d="M7.38062061,10.7405738 C7.05087822,10.7405738 6.78348946,11.007904 6.78348946,11.3377049 L6.78348946,12.0350703 C6.78348946,12.3648712 7.05087822,12.6322014 7.38062061,12.6322014 C7.710363,12.6322014 7.97775176,12.3648712 7.97775176,12.0350703 L7.97775176,11.3377049 C7.97775176,11.0079625 7.710363,10.7405738 7.38062061,10.7405738 Z" id="Shape"></path>
                            <path d="M18.2216042,7.44396956 L17.8412178,7.44396956 C17.5114754,7.44396956 17.2440867,7.71129977 17.2440867,8.0411007 C17.2440867,8.37090164 17.5114754,8.63823185 17.8412178,8.63823185 L18.2216042,8.63823185 C18.5513466,8.63823185 18.8187354,8.37090164 18.8187354,8.0411007 C18.8187354,7.71129977 18.5513466,7.44396956 18.2216042,7.44396956 Z" id="Shape"></path>
                            <path d="M15.4320843,7.44396956 L13.4033372,7.44396956 C13.0735948,7.44396956 12.8062061,7.71129977 12.8062061,8.0411007 C12.8062061,8.37090164 13.0735948,8.63823185 13.4033372,8.63823185 L15.4320843,8.63823185 C15.7618267,8.63823185 16.0292155,8.37090164 16.0292155,8.0411007 C16.0292155,7.71129977 15.7618267,7.44396956 15.4320843,7.44396956 Z" id="Shape"></path>
                        </g>
                    </g>
                </g>
            </g>
        </g>
    </g>
</svg>