<?xml version="1.0" encoding="UTF-8"?>
<svg width="17px" height="17px" viewBox="0 0 17 17" version="1.1" xmlns="http://www.w3.org/2000/svg" xmlns:xlink="http://www.w3.org/1999/xlink">
    <title>QUESTION ICON</title>
    <defs></defs>
    <g id="Future" stroke="none" stroke-width="1" fill="none" fill-rule="evenodd">
        <g id="Assumption" transform="translate(-143.000000, -205.000000)">
            <g id="QUESTION-ICON" transform="translate(141.000000, 203.000000)">
                <g transform="translate(3.000000, 3.000000)">
                    <path d="M7.66785917,10.020682 L7.66785917,9.80367914 C7.66785917,8.11871545 9.7102394,6.98264145 9.7102394,5.41256165 C9.7102394,4.37860665 8.82946293,3 7.04238023,3 C6.18713351,3 5.38294629,3.30635703 5,3.89354135 L5.34465166,4.96579097 C5.61271407,4.55731492 6.18713351,4.12330913 6.95302609,4.12330913 C7.7061538,4.12330913 8.3571625,4.53178517 8.3571625,5.42532652 C8.3571625,6.89328731 6.65943394,7.78682866 6.65943394,9.36967334 C6.65943394,9.42073284 6.65943394,9.52285186 6.69772857,10.020682 L7.66785917,10.020682 Z M7.91039183,12.5736573 L7.91039183,11.1439912 L6.46796079,11.1439912 L6.46796079,12.5736573 L7.91039183,12.5736573 Z" id="?-copy" fill="#2E3192"></path>
                    <circle id="Oval" stroke="#2E3192" cx="7.5" cy="7.5" r="7.5"></circle>
                </g>
            </g>
        </g>
    </g>
</svg>