<?xml version="1.0" encoding="UTF-8"?>
<svg width="24px" height="29px" viewBox="0 0 24 29" version="1.1" xmlns="http://www.w3.org/2000/svg" xmlns:xlink="http://www.w3.org/1999/xlink">
    <title>ribbon</title>
    <defs></defs>
    <g id="Budget" stroke="none" stroke-width="1" fill="none" fill-rule="evenodd">
        <g id="Needs" transform="translate(-281.000000, -356.000000)" fill="#FFFFFF">
            <g id="ribbon" transform="translate(281.000000, 356.000000)">
                <g id="Layer_1">
                    <g id="Group">
                        <path d="M19.6765,9.62992578 C19.593416,8.56468555 19.1518955,3.20110156 18.6430205,2.20060156 C17.9944814,0.925564453 15.1216885,0 11.811293,0 C8.52889941,0 5.67921094,0.910611328 4.99927051,2.16967578 C4.99633203,2.17449023 4.99339355,2.17885156 4.99039746,2.18366602 C4.98745898,2.18944336 4.98302246,2.19476758 4.98008398,2.20060156 C4.47120898,3.20110156 4.02968848,8.56462891 3.94608594,9.62992578 C3.93721289,9.74881445 3.97264746,9.86674023 4.04639746,9.9615 L6.99639746,13.7315 C7.16210449,13.9432227 7.470875,13.9833242 7.68619043,13.8199727 C7.90156348,13.657584 7.94137695,13.3540469 7.77618848,13.1423242 L4.94125,9.51925 C5.09168848,7.64824023 5.36997949,4.91646289 5.63599805,3.49161133 L10.284207,9.47671289 C10.3810615,9.60143555 10.5270635,9.66668555 10.6756006,9.66668555 C10.7793691,9.66668555 10.8845781,9.63428711 10.9730781,9.56762109 C11.1894307,9.40568555 11.2306846,9.10214844 11.0660146,8.88997266 L9.9602832,7.46608398 C10.3044307,7.3626582 10.8846357,7.25005664 11.8114082,7.25005664 C12.7067217,7.25005664 13.3006396,7.3554082 13.6699082,7.4569082 L0.112583984,24.8394629 C0.00835449219,24.9743242 -0.0172275391,25.1531387 0.0456904297,25.3107129 C0.109126953,25.4687402 0.25219043,25.5823613 0.422333984,25.6103984 L3.08079102,26.0453984 L3.97022754,28.6698984 C4.02726855,28.839084 4.17522949,28.96375 4.35470703,28.9937129 C4.38224805,28.9980742 4.40978906,29 4.43635059,29 C4.58776855,29 4.73233008,28.9318613 4.82624609,28.8115 L19.5762461,9.9615 C19.6503994,9.86674023 19.685834,9.74881445 19.6765,9.62992578 Z M4.61035449,27.5016855 L3.91958203,25.4639258 C3.86208008,25.2942871 3.71360059,25.1695645 3.53360449,25.1401113 L1.39139746,24.7887129 L14.8473154,7.53563867 L14.8473154,7.53512891 L17.384834,4.28180469 C17.5500225,4.06962891 17.5092295,3.76654492 17.2938564,3.60415625 C17.0775039,3.44125781 16.7697129,3.48237891 16.6040635,3.6935918 L14.3030635,6.6443418 C13.868918,6.47951758 13.085209,6.28331445 11.811293,6.28331445 C10.5053994,6.28331445 9.74433398,6.48580469 9.33179492,6.65742578 L6.03321094,2.41039844 C6.69598145,1.74583398 8.82245898,0.966685547 11.811293,0.966685547 C15.1423154,0.966685547 17.4079385,1.93433398 17.7634365,2.63271289 C18.081541,3.25910156 18.4876846,7.10885156 18.6818545,9.51925 L4.61035449,27.5016855 Z" id="Shape"></path>
                        <path d="M23.510002,24.8394629 L16.6782744,16.0790273 C16.5130859,15.8673047 16.2047764,15.8272031 15.9884814,15.9895918 C15.7731084,16.1519805 15.7323154,16.4550645 15.8975039,16.6672402 L22.2316494,24.7887129 L20.0889814,25.1401113 C19.9095039,25.1696211 19.7605635,25.2942871 19.7035225,25.4639258 L19.0117705,27.5031016 L13.4456045,20.4126016 C13.2794365,20.2018418 12.9716455,20.16225 12.755293,20.3250918 C12.5408994,20.4884434 12.5010859,20.7919805 12.666793,21.0031934 L18.796916,28.8119531 C18.891293,28.9318047 19.0358545,28.9999434 19.186293,28.9999434 C19.213834,28.9999434 19.241375,28.9980176 19.2683975,28.9931465 C19.447875,28.9631836 19.595375,28.8389707 19.652877,28.6697852 L20.5423135,26.0452852 L23.200252,25.6102852 C23.3708564,25.582248 23.5139199,25.4686836 23.5773564,25.3105996 C23.6402744,25.1531387 23.61475,24.9743242 23.510002,24.8394629 Z" id="Shape"></path>
                    </g>
                </g>
            </g>
        </g>
    </g>
</svg>