<?xml version="1.0" encoding="UTF-8"?>
<svg width="32px" height="26px" viewBox="0 0 32 26" version="1.1" xmlns="http://www.w3.org/2000/svg" xmlns:xlink="http://www.w3.org/1999/xlink">
    <title>019-stairs</title>
    <defs></defs>
    <g id="Future" stroke="none" stroke-width="1" fill="none" fill-rule="evenodd">
        <g id="Lets-begin" transform="translate(-164.000000, -248.000000)" fill="#FFFFFF">
            <g id="019-stairs" transform="translate(164.000000, 248.000000)">
                <g id="Layer_1">
                    <g id="Ladder-up">
                        <path d="M31.030279,0.488992689 L25.190328,0.488992689 C24.9218657,0.488992689 24.7045566,0.704840789 24.7045566,0.971437085 L24.7045566,7.01532924 L19.1638054,7.01532924 C18.8953506,7.01532924 18.6780359,7.23117802 18.6780359,7.49777407 L18.6780359,12.4761962 L13.0170464,12.4761962 C12.7485824,12.4761962 12.5312288,12.6919963 12.5312288,12.9586411 L12.5312288,18.7175926 L7.1084368,18.7175926 C6.839976,18.7175926 6.62261823,18.9333927 6.62261823,19.2000365 L6.62261823,24.5630658 L0.969673115,24.5630658 C0.701212509,24.5630658 0.483903418,24.7789155 0.483903418,25.0455116 C0.483903418,25.3121076 0.701212509,25.5279077 0.969673115,25.5279077 L7.10843699,25.5279077 C7.37689736,25.5279077 7.59420655,25.3121076 7.59420655,25.0455116 L7.59420655,19.6824327 L13.0170465,19.6824327 C13.2855032,19.6824327 13.5028124,19.4666326 13.5028124,19.2000365 L13.5028124,13.4410372 L19.1638056,13.4410372 C19.4322659,13.4410372 19.6496251,13.2252371 19.6496251,12.9586411 L19.6496251,7.98017023 L25.1903281,7.98017023 C25.4587885,7.98017023 25.6761457,7.76437013 25.6761457,7.49777407 L25.6761457,1.45383324 L31.0302791,1.45383324 C31.2987432,1.45383324 31.5160949,1.23803338 31.5160949,0.971437085 C31.5160949,0.704840789 31.298743,0.488992689 31.030279,0.488992689 Z" id="Shape"></path>
                        <path d="M4.36361232,9.13967451 C4.48341833,9.13967451 4.60322434,9.09407734 4.69413755,9.00379957 L11.6183518,2.12761828 L11.6183518,6.74921438 C11.6183518,7.02519966 11.8432728,7.24855964 12.1211881,7.24855964 C12.3991514,7.24855964 12.6240243,7.02519966 12.6240243,6.74921438 L12.6240243,0.971437085 C12.6240243,0.6954038 12.3991514,0.472092737 12.1211881,0.472092737 L6.30300625,0.472092737 C6.02509101,0.472092737 5.80016999,0.695403848 5.80016999,0.971437085 C5.80016999,1.24742213 6.02509101,1.47078143 6.30300625,1.47078143 L10.9569258,1.47078143 L4.03313978,8.34648105 C3.85035176,8.52795219 3.85035176,8.82228158 4.03265474,9.00331837 C4.12404887,9.09407734 4.24385488,9.13967451 4.36361232,9.13967451 Z" id="Shape"></path>
                    </g>
                </g>
            </g>
        </g>
    </g>
</svg>