<?xml version="1.0" encoding="UTF-8"?>
<svg width="30px" height="30px" viewBox="0 0 30 30" version="1.1" xmlns="http://www.w3.org/2000/svg" xmlns:xlink="http://www.w3.org/1999/xlink">
    <title>student</title>
    <defs></defs>
    <g id="Future" stroke="none" stroke-width="1" fill="none" fill-rule="evenodd">
        <g id="Lets-begin" transform="translate(-275.000000, -245.000000)" fill="#FFFFFF">
            <g id="student" transform="translate(275.000000, 245.000000)">
                <g id="Layer_1">
                    <g id="Group">
                        <path d="M17.9651462,14.9705848 C18.9731579,14.9705848 19.8010526,14.2165497 19.9338012,13.2439766 L21.7577193,11.8766667 C21.9783041,11.711462 22.0232164,11.3985965 21.8575439,11.1780117 C21.6923392,10.9574269 21.3794737,10.9120468 21.1588889,11.0781871 L19.8869006,12.0323392 C19.6967836,11.4240351 19.1348538,10.9784211 18.4642105,10.9784211 L16.4681287,10.9784211 C15.6427485,10.9784211 14.9710526,11.650117 14.9710526,12.4754971 C14.9710526,11.650117 14.2993567,10.9784211 13.4739766,10.9784211 L11.4777778,10.9784211 C10.807076,10.9784211 10.2452047,11.4240351 10.0550292,12.0323392 L8.78304094,11.0781871 C8.56298246,10.9129825 8.24959064,10.9578947 8.08438596,11.1780117 C7.91871345,11.3985965 7.96362573,11.711462 8.18421053,11.8766667 L10.0081287,13.2439766 C10.1408772,14.2165497 10.9682456,14.9705848 11.9767836,14.9705848 L12.9748538,14.9705848 C14.075731,14.9705848 14.9709357,14.0753216 14.9709357,12.9745029 C14.9709357,14.0753801 15.8661988,14.9705848 16.9670175,14.9705848 L17.9651462,14.9705848 Z M13.972924,12.9745029 C13.972924,13.5249123 13.5247953,13.9725731 12.9748538,13.9725731 L11.9767836,13.9725731 C11.4268421,13.9725731 10.9787135,13.5249708 10.9787135,12.9745029 L10.9787135,12.4754971 C10.9787135,12.2005263 11.2022807,11.9764912 11.4777193,11.9764912 L13.4738012,11.9764912 C13.7492398,11.9764912 13.972807,12.2005263 13.972807,12.4754971 L13.972807,12.9745029 L13.972924,12.9745029 Z M15.9690058,12.9745029 L15.9690058,12.4754971 C15.9690058,12.2005263 16.1925731,11.9764912 16.4680117,11.9764912 L18.4640936,11.9764912 C18.7395322,11.9764912 18.9630994,12.2005263 18.9630994,12.4754971 L18.9630994,12.9745029 C18.9630994,13.5249123 18.5149708,13.9725731 17.9650292,13.9725731 L16.9669591,13.9725731 C16.4171345,13.9725146 15.9690058,13.5249123 15.9690058,12.9745029 Z" id="Shape"></path>
                        <path d="M29.9267836,29.3210526 L29.4167836,27.288538 C29.1607602,26.5190643 27.645731,24.0438596 18.9632164,23.9764912 L18.9632164,23.4540351 C18.9632164,23.1785965 18.7401754,22.9550292 18.4642105,22.9550292 C18.1882456,22.9550292 17.9652047,23.1785965 17.9652047,23.4540351 L17.9652047,24.4521053 C17.9652047,24.455614 17.967193,24.4585965 17.967193,24.4621053 C17.967193,24.4650877 17.9652047,24.4676023 17.9652047,24.4711111 C17.9632164,24.7754971 17.862924,27.4463158 14.9710526,27.4463158 C12.0791813,27.4463158 11.9788889,24.757076 11.9769006,24.4521637 L11.9769006,23.4540936 C11.9769006,23.178655 11.7538596,22.9550877 11.4778947,22.9550877 C11.2019298,22.9550877 10.9788889,23.178655 10.9788889,23.4540936 L10.9788889,23.9581287 C4.51239766,24.0089474 1.27421053,25.0409357 0.514210526,27.3249708 L0.0152046784,29.3210526 C-0.0521637427,29.588538 0.110994152,29.8594737 0.378479532,29.9263743 C0.64497076,29.994269 0.916432749,29.8305848 0.983274854,29.5635673 L1.47134503,27.6039181 C2.05122807,25.8647953 5.17409357,24.9960234 11.0116959,24.9525731 C11.1928655,26.3812865 12.1639181,28.444269 14.9709357,28.444269 C17.7764327,28.444269 18.7480702,26.3938012 18.9301754,24.9725731 C25.7698246,25.0229825 28.1476608,26.6373099 28.4595906,27.5674854 L28.9585965,29.5635673 C29.0154971,29.790117 29.2185965,29.941345 29.4421637,29.941345 C29.4821053,29.941345 29.5229825,29.9368421 29.5634503,29.9263743 C29.8309357,29.8594737 29.9936257,29.588538 29.9267836,29.3210526 Z" id="Shape"></path>
                        <path d="M3.42900585,2.49093567 L14.9066082,3.9880117 C14.9280702,3.99052632 14.9495322,3.9919883 14.9709942,3.9919883 C14.9924561,3.9919883 15.0139181,3.99046784 15.0353801,3.9880117 L25.9495322,2.56432749 L25.9495322,4.29695906 C25.6366667,4.64877193 24.951462,5.52654971 24.951462,6.48719298 C24.951462,7.58555556 25.8467251,7.98426901 26.448538,7.98426901 C27.0503509,7.98426901 27.945614,7.58555556 27.945614,6.48719298 C27.945614,5.52654971 27.2604678,4.64877193 26.9475439,4.29695906 L26.9475439,1.99590643 C26.9475439,1.93005848 26.9335673,1.86766082 26.910117,1.80976608 C26.9016374,1.78929825 26.8871345,1.77333333 26.8761988,1.75438596 C26.8567251,1.71947368 26.8372515,1.68502924 26.8103509,1.65608187 C26.7928655,1.63760234 26.7719298,1.6251462 26.7519883,1.61017544 C26.7235673,1.58719298 26.695614,1.56526316 26.6626901,1.54929825 C26.6382456,1.53730994 26.6122807,1.53233918 26.585848,1.5248538 C26.5614035,1.51736842 26.5394152,1.50438596 26.5129825,1.50087719 L15.0353801,0.00380116959 C14.9924561,-0.00116959064 14.9495322,-0.00116959064 14.9066082,0.00380116959 L3.42900585,1.50087719 C3.18046784,1.53333333 2.99438596,1.74538012 2.99438596,1.99590643 C2.99438596,2.24643275 3.18052632,2.45853801 3.42900585,2.49093567 Z M26.9476023,6.4871345 C26.9476023,6.88538012 26.6776023,6.97865497 26.4485965,6.98614035 C26.2195322,6.97865497 25.9495906,6.88532164 25.9495906,6.4871345 C25.9495906,6.07292398 26.2040936,5.61081871 26.4485965,5.27 C26.6930994,5.61087719 26.9476023,6.07298246 26.9476023,6.4871345 Z M14.9709942,1.00187135 L22.5905848,1.99590643 L14.9709942,2.99 L7.35134503,1.99590643 L14.9709942,1.00187135 Z" id="Shape"></path>
                        <path d="M16.1212281,18.1054386 C16.1052632,18.119883 15.7290058,18.4637427 14.9709942,18.4637427 C14.2239766,18.4637427 13.8476608,18.129883 13.8217544,18.1059649 C13.6276608,17.915848 13.3147368,17.9173099 13.1211111,18.1109357 C12.9259649,18.3060819 12.9259649,18.621462 13.1211111,18.8165497 C13.1869591,18.8823977 13.7997661,19.4618129 14.9709942,19.4618129 C16.1422222,19.4618129 16.7550292,18.8824561 16.8208772,18.8165497 C17.0135088,18.6239181 17.0129825,18.3155556 16.8238596,18.119883 C16.6337427,17.9243275 16.3203509,17.9188304 16.1212281,18.1054386 Z" id="Shape"></path>
                        <path d="M6.98654971,10.0656725 C6.40567251,10.2717544 5.98847953,10.8266667 5.98847953,11.4774269 L5.98847953,13.4735088 C5.98847953,14.1696491 6.46602339,14.7564912 7.11128655,14.9231579 C7.37824561,15.7106433 8.11584795,17.8459649 8.53649123,18.6867836 C9.32894737,20.2721637 11.5760819,22.9549708 14.9709357,22.9549708 C18.3657895,22.9549708 20.612924,20.2722222 21.4053801,18.6867836 C21.8260819,17.8459064 22.5636257,15.7105848 22.8305848,14.9231579 C23.475848,14.7564912 23.9533918,14.1696491 23.9533918,13.4735088 L23.9533918,11.4774269 C23.9533918,10.8267251 23.5361988,10.2717544 22.9553216,10.0656725 L22.9553216,9.48134503 C22.9553216,9.20590643 22.7322807,8.98233918 22.4563158,8.98233918 C22.1803509,8.98233918 21.9573099,9.20590643 21.9573099,9.48134503 L21.9573099,10.4794152 C21.9573099,10.7548538 22.1803509,10.9784211 22.4563158,10.9784211 C22.7317544,10.9784211 22.9553216,11.2024561 22.9553216,11.4774269 L22.9553216,13.4735088 C22.9553216,13.7484795 22.7317544,13.9725146 22.4563158,13.9725146 C22.2412281,13.9725146 22.0505848,14.1097661 21.9832164,14.3138596 C21.9727485,14.3432749 20.9901754,17.2855556 20.5130994,18.2407018 C20.4367251,18.3923977 18.612807,21.9569591 14.9709357,21.9569591 C11.3290643,21.9569591 9.50508772,18.3923977 9.42877193,18.2407018 C8.95122807,17.2855556 7.96912281,14.3433333 7.95865497,14.3138596 C7.89076023,14.1097661 7.70064327,13.9725146 7.48555556,13.9725146 C7.21011696,13.9725146 6.98654971,13.7484795 6.98654971,13.4735088 L6.98654971,11.4774269 C6.98654971,11.2024561 7.21011696,10.9784211 7.48555556,10.9784211 C7.76152047,10.9784211 7.9845614,10.7548538 7.9845614,10.4794152 L7.9845614,9.48128655 C7.9845614,9.20584795 7.76152047,8.9822807 7.48555556,8.9822807 C7.20959064,8.9822807 6.98654971,9.20584795 6.98654971,9.48128655 L6.98654971,10.0656725 L6.98654971,10.0656725 Z" id="Shape"></path>
                        <path d="M7.48561404,3.49298246 C7.20964912,3.49298246 6.98660819,3.71654971 6.98660819,3.9919883 L6.98660819,7.4851462 C6.98660819,7.67426901 7.09339181,7.84695906 7.2625731,7.93175439 C7.38929825,7.99461988 10.414386,9.48122807 14.9709942,9.48122807 C19.5276023,9.48122807 22.5526901,7.99461988 22.6794152,7.93175439 C22.8485965,7.84690058 22.9553801,7.67426901 22.9553801,7.4851462 L22.9553801,3.99204678 C22.9553801,3.71660819 22.7323392,3.49304094 22.4563743,3.49304094 C22.1804094,3.49304094 21.9573684,3.71660819 21.9573684,3.99204678 L21.9573684,7.16233918 C21.1319883,7.51216374 18.5200585,8.48327485 14.9709942,8.48327485 C11.4219298,8.48327485 8.81,7.51216374 7.98461988,7.16233918 L7.98461988,3.99204678 C7.98461988,3.71654971 7.76157895,3.49298246 7.48561404,3.49298246 Z" id="Shape"></path>
                    </g>
                </g>
            </g>
        </g>
    </g>
</svg>