<?xml version="1.0" encoding="UTF-8"?>
<svg width="32px" height="30px" viewBox="0 0 32 30" version="1.1" xmlns="http://www.w3.org/2000/svg" xmlns:xlink="http://www.w3.org/1999/xlink">
    <title>Shape</title>
    <defs></defs>
    <g id="Page-1" stroke="none" stroke-width="1" fill="none" fill-rule="evenodd">
        <path d="M16.533,1.685 L16.533,0.073 L15.467,0.073 L15.467,1.685 C6.894,1.966 0.006,8.983 0.006,17.574 C0.006,18.139 0.037,18.718 0.1,19.296 L1.162,19.258 C1.227,17.469 2.678,16.067 4.468,16.067 C6.293,16.067 7.779,17.553 7.779,19.379 L8.845,19.379 C8.845,17.553 10.331,16.067 12.157,16.067 C13.963,16.067 15.433,17.52 15.466,19.317 L15.466,27.572 C15.466,28.871 16.522,29.928 17.821,29.928 C19.12,29.928 20.177,28.871 20.177,27.572 L19.111,27.572 C19.111,28.283 18.532,28.862 17.821,28.862 C17.11,28.862 16.532,28.284 16.532,27.572 L16.532,19.378 L16.535,19.378 C16.535,17.552 18.02,16.066 19.846,16.066 C21.672,16.066 23.158,17.552 23.158,19.378 L24.224,19.378 C24.224,17.552 25.71,16.066 27.535,16.066 C29.309,16.066 30.761,17.455 30.839,19.228 L31.902,19.26 C31.961,18.695 31.992,18.127 31.992,17.573 C31.992,8.982 25.104,1.966 16.531,1.684 L16.533,1.685 Z M27.537,15 C25.88,15 24.436,15.925 23.693,17.286 C22.95,15.926 21.504,15 19.848,15 C18.192,15 16.747,15.925 16.004,17.286 C15.261,15.926 13.815,15 12.159,15 C10.503,15 9.057,15.925 8.314,17.286 C7.571,15.926 6.126,15 4.47,15 C3.116,15 1.909,15.606 1.108,16.568 C1.631,8.854 8.111,2.738 16.002,2.738 C23.892,2.738 30.371,8.853 30.895,16.565 C30.092,15.606 28.886,15 27.539,15 L27.537,15 Z" id="Shape" fill="#FFFFFF"></path>
    </g>
</svg>