<?xml version="1.0" encoding="UTF-8"?>
<svg width="24px" height="24px" viewBox="0 0 24 24" version="1.1" xmlns="http://www.w3.org/2000/svg" xmlns:xlink="http://www.w3.org/1999/xlink">
    <title>x</title>
    <defs></defs>
    <g id="Future" stroke="none" stroke-width="1" fill="none" fill-rule="evenodd">
        <g id="Future_form_1_entered-2-adults" transform="translate(-308.000000, -211.000000)" fill="#464654">
            <g id="x" transform="translate(308.000000, 211.000000)">
                <g>
                    <path d="M12,0 C5.38338462,0 0,5.38292308 0,12 C0,18.6170769 5.38338462,24 12,24 C18.6166154,24 24,18.6170769 24,12 C24,5.38292308 18.6166154,0 12,0 Z M12,23.0769231 C5.89246154,23.0769231 0.923076923,18.1075385 0.923076923,12 C0.923076923,5.89246154 5.89246154,0.923076923 12,0.923076923 C18.1075385,0.923076923 23.0769231,5.89246154 23.0769231,12 C23.0769231,18.1075385 18.1075385,23.0769231 12,23.0769231 Z" id="Shape"></path>
                    <path d="M12.5,11.5384615 L17.7692308,11.5384615 C18.024,11.5384615 18.2307692,11.7447692 18.2307692,12 C18.2307692,12.2552308 18.024,12.4615385 17.7692308,12.4615385 L12.5,12.4615385 L12.5,12.5 L12.5,17.8076923 C12.5,18.0624615 12.2936923,18.2692308 12.0384615,18.2692308 C11.7832308,18.2692308 11.5769231,18.0624615 11.5769231,17.8076923 L11.5769231,12.5 L11.5769231,12.4615385 L11.5384615,12.4615385 L6.23076923,12.4615385 C5.976,12.4615385 5.76923077,12.2552308 5.76923077,12 C5.76923077,11.7447692 5.976,11.5384615 6.23076923,11.5384615 L11.5384615,11.5384615 L11.5769231,11.5384615 L11.5769231,6.26923077 C11.5769231,6.01446154 11.7832308,5.80769231 12.0384615,5.80769231 C12.2936923,5.80769231 12.5,6.01446154 12.5,6.26923077 L12.5,11.5384615 Z" id="Combined-Shape" transform="translate(12.000000, 12.038462) rotate(-315.000000) translate(-12.000000, -12.038462) "></path>
                </g>
            </g>
        </g>
    </g>
</svg>